<svg xmlns="http://www.w3.org/2000/svg" xmlns:xlink="http://www.w3.org/1999/xlink" width="56.896mm" height="55.118mm" viewBox="4010 3176 224 217"><title></title><style type="text/css">
*[layerid="1"] {stroke:#000000;fill:#000000;}
*[layerid="2"] {stroke:#000000;fill:#000000;}
*[layerid="3"] {stroke:#000000;fill:#000000;}
*[layerid="4"] {stroke:#000000;fill:#000000;}
*[layerid="5"] {stroke:#000000;fill:#000000;}
*[layerid="6"] {stroke:#000000;fill:#000000;}
*[layerid="7"] {stroke:#000000;fill:#000000;}
*[layerid="8"] {stroke:#000000;fill:#000000;}
*[layerid="9"] {stroke:#000000;fill:#000000;}
*[layerid="10"] {stroke:#000000;fill:#000000;}
*[layerid="11"] {stroke:#000000;fill:#000000;}
*[layerid="12"] {stroke:#000000;fill:#000000;}
*[layerid="13"] {stroke:#000000;fill:#000000;}
*[layerid="14"] {stroke:#000000;fill:#000000;}
*[layerid="15"] {stroke:#000000;fill:#000000;}
*[layerid="19"] {stroke:#000000;fill:#000000;}
*[layerid="21"] {stroke:#000000;fill:#000000;}
*[layerid="22"] {stroke:#000000;fill:#000000;}
*[layerid="23"] {stroke:#000000;fill:#000000;}
*[layerid="24"] {stroke:#000000;fill:#000000;}
*[layerid="25"] {stroke:#000000;fill:#000000;}
*[layerid="26"] {stroke:#000000;fill:#000000;}
*[layerid="27"] {stroke:#000000;fill:#000000;}
*[layerid="28"] {stroke:#000000;fill:#000000;}
*[layerid="29"] {stroke:#000000;fill:#000000;}
*[layerid="30"] {stroke:#000000;fill:#000000;}
*[layerid="31"] {stroke:#000000;fill:#000000;}
*[layerid="32"] {stroke:#000000;fill:#000000;}
*[layerid="33"] {stroke:#000000;fill:#000000;}
*[layerid="34"] {stroke:#000000;fill:#000000;}
*[layerid="35"] {stroke:#000000;fill:#000000;}
*[layerid="36"] {stroke:#000000;fill:#000000;}
*[layerid="37"] {stroke:#000000;fill:#000000;}
*[layerid="38"] {stroke:#000000;fill:#000000;}
*[layerid="39"] {stroke:#000000;fill:#000000;}
*[layerid="40"] {stroke:#000000;fill:#000000;}
*[layerid="41"] {stroke:#000000;fill:#000000;}
*[layerid="42"] {stroke:#000000;fill:#000000;}
*[layerid="43"] {stroke:#000000;fill:#000000;}
*[layerid="44"] {stroke:#000000;fill:#000000;}
*[layerid="45"] {stroke:#000000;fill:#000000;}
*[layerid="46"] {stroke:#000000;fill:#000000;}
*[layerid="47"] {stroke:#000000;fill:#000000;}
*[layerid="48"] {stroke:#000000;fill:#000000;}
*[layerid="49"] {stroke:#000000;fill:#000000;}
*[layerid="50"] {stroke:#000000;fill:#000000;}
*[layerid="51"] {stroke:#000000;fill:#000000;}
*[layerid="52"] {stroke:#000000;fill:#000000;}
*[layerid="99"] {stroke:#000000;fill:#000000;}
*[layerid="100"] {stroke:#000000;fill:#000000;}
*[layerid="101"] {stroke:#000000;fill:#000000;}
*[layerid="Hole"] {stroke:#000000;fill:#000000;}
*[layerid="DRCError"] {stroke:#000000;fill:#000000;}
*[fill="none"] {fill: none;}
*[stroke="none"] {stroke: none;}
path, polyline, polygon, line {stroke-linecap:round;}
g[c_partid="part_pad"][layerid="1"] ellipse:not([c_etype="pad_outer"]) {fill:#000000;}
g[c_partid="part_pad"][layerid="1"] polygon:not([c_etype="pad_outer"]) {fill:#000000;}
g[c_partid="part_pad"][layerid="1"] polyline:not([c_etype="pad_outer"]) {stroke:#000000;}
g[c_partid="part_pad"][layerid="2"] ellipse:not([c_etype="pad_outer"]) {fill:#000000;}
g[c_partid="part_pad"][layerid="2"] polygon:not([c_etype="pad_outer"]) {fill:#000000;}
g[c_partid="part_pad"][layerid="2"] polyline:not([c_etype="pad_outer"]) {stroke:#000000;}
g[c_partid="part_pad"][layerid="11"] ellipse:not([c_etype="pad_outer"]) {fill:#000000;}
g[c_partid="part_pad"][layerid="11"] polygon:not([c_etype="pad_outer"]) {fill:#000000;}
g[c_partid="part_pad"][layerid="11"] polyline:not([c_etype="pad_outer"]) {stroke:#000000;}
g[c_partid="part_pad"][layerid="11"] circle {fill:#FFFFFF;}
g[c_partid="part_pad"][layerid="11"] > polyline:nth-of-type(2) {stroke:#FFFFFF;}
g[c_partid="part_pad"][layerid="11"][c_shape="ELLIPSE"]  polyline:nth-last-of-type(1) {stroke:#FFFFFF;}
g[c_partid="part_pad"][layerid="11"][c_shape="RECT"]  polyline:nth-last-of-type(1) {stroke:#FFFFFF;}
g[c_partid="part_pad"][layerid="11"][c_shape="POLYGON"]  polyline:nth-last-of-type(1) {stroke:#FFFFFF;}
g[c_partid="part_via"] > * + circle, #gCurParts g[c_partid="part_via"] > * + circle {fill:#FFFFFF;}
g[c_partid="part_pad"] > polygon[c_etype="pad_outer"], #gCurParts g[c_partid="part_pad"] > polygon[c_etype="pad_outer"] {stroke-linejoin: miter;stroke-miterlimit: 100;}
g[c_partid="part_hole"] > circle {fill: #FFFFFF;}path, polyline, polygon {stroke-linejoin:round;}
rect, circle, ellipse, polyline, line, polygon, path {shape-rendering:crispEdges;}
</style>
<rect x="4010" y="3176" width="224" height="217" fill="#FFFFFF" stroke="none"/><polyline points="4092.0001 3243.2936 4092.0001 3236.7066" stroke-width="1"  stroke-linecap="round" fill="none" layerid="3" net="" id="gge34834" locked="0" /><polyline points="4090.0001 3236.7066 4090.0001 3243.2936" stroke-width="1"  stroke-linecap="round" fill="none" layerid="3" net="" id="gge34837" locked="0" /><polyline points="4067.25 3344 4064.75 3344 4062.25 3346.5 4059.75 3341.5 4057.25 3346.5 4054.75 3341.5 4052.25 3346.5 4049.75 3341.5 4047.25 3344 4044.75 3344" stroke-width="0.5"  stroke-linecap="round" fill="none" layerid="3" net="" id="gge35050" locked="0" /><polyline points="4069.779 3348.921 4042.221 3348.921 4042.221 3339.079 4069.779 3339.079 4069.779 3348.921" stroke-width="0.984"  stroke-linecap="round" fill="none" layerid="3" net="" id="gge35053" locked="0" /><polyline points="4116.5 3228 4116.5 3218" stroke-width="0.79"  stroke-linecap="round" fill="none" layerid="3" net="" id="gge35104" locked="0" /><polyline points="4056.5 3228 4056.5 3218" stroke-width="0.79"  stroke-linecap="round" fill="none" layerid="3" net="" id="gge35107" locked="0" /><polyline points="4056.5 3218 4116.5 3218" stroke-width="0.79"  stroke-linecap="round" fill="none" layerid="3" net="" id="gge35110" locked="0" /><polyline points="4056.5 3228 4116.5 3228" stroke-width="0.79"  stroke-linecap="round" fill="none" layerid="3" net="" id="gge35113" locked="0" /><polyline points="4043.5 3291.5 4043.5 3281.6 4063.5 3281.6 4063.5 3291.5 4043.5 3291.5" stroke-width="0.8"  stroke-linecap="round" fill="none" layerid="3" net="" id="gge35206" locked="0" /><polyline points="4049.5 3259.25 4049.5 3256.75 4047 3254.25 4052 3251.75 4047 3249.25 4052 3246.75 4047 3244.25 4052 3241.75 4049.5 3239.25 4049.5 3236.75" stroke-width="0.5"  stroke-linecap="round" fill="none" layerid="3" net="" id="gge35269" locked="0" /><polyline points="4044.579 3261.779 4044.579 3234.221 4054.421 3234.221 4054.421 3261.779 4044.579 3261.779" stroke-width="0.984"  stroke-linecap="round" fill="none" layerid="3" net="" id="gge35272" locked="0" /><polyline points="4028.5091 3330.6462 4045.0445 3330.6462 4045.0445 3319.229" stroke-width="1"  stroke-linecap="round" fill="none" layerid="3" net="" id="gge35536" locked="0" /><polyline points="4045.0445 3310.1733 4028.1153 3310.1733" stroke-width="1"  stroke-linecap="round" fill="none" layerid="3" net="" id="gge35542" locked="0" /><polyline points="4028.3111 3330.6457 4028.3111 3319.2285" stroke-width="1"  stroke-linecap="round" fill="none" layerid="3" net="" id="gge35545" locked="0" /><polyline points="4025.5091 3232.1462 4042.0445 3232.1462 4042.0445 3220.729" stroke-width="1"  stroke-linecap="round" fill="none" layerid="3" net="" id="gge35596" locked="0" /><polyline points="4042.0445 3211.6733 4025.1153 3211.6733" stroke-width="1"  stroke-linecap="round" fill="none" layerid="3" net="" id="gge35602" locked="0" /><polyline points="4025.3111 3232.1457 4025.3111 3220.7285" stroke-width="1"  stroke-linecap="round" fill="none" layerid="3" net="" id="gge35605" locked="0" /><polyline points="4176.5 3217 4176.5 3221" stroke-width="1"  stroke-linecap="round" fill="none" layerid="3" net="" id="gge25988" locked="0" /><polyline points="4185.5 3247 4189.5 3247" stroke-width="1"  stroke-linecap="round" fill="none" layerid="3" net="" id="gge26042" locked="0" /><polyline points="4129.2936 3277.4999 4122.7066 3277.4999" stroke-width="1"  stroke-linecap="round" fill="none" layerid="3" net="" id="gge26096" locked="0" /><polyline points="4122.7066 3279.4999 4129.2936 3279.4999" stroke-width="1"  stroke-linecap="round" fill="none" layerid="3" net="" id="gge26099" locked="0" /><polyline points="4138.9999 3208.2064 4138.9999 3214.7934" stroke-width="1"  stroke-linecap="round" fill="none" layerid="3" net="" id="gge26156" locked="0" /><polyline points="4140.9999 3214.7934 4140.9999 3208.2064" stroke-width="1"  stroke-linecap="round" fill="none" layerid="3" net="" id="gge26159" locked="0" /><polyline points="4179.7936 3286.4999 4173.2066 3286.4999" stroke-width="1"  stroke-linecap="round" fill="none" layerid="3" net="" id="gge26216" locked="0" /><polyline points="4173.2066 3288.4999 4179.7936 3288.4999" stroke-width="1"  stroke-linecap="round" fill="none" layerid="3" net="" id="gge26219" locked="0" /><polyline points="4057.7936 3310.4999 4051.2066 3310.4999" stroke-width="1"  stroke-linecap="round" fill="none" layerid="3" net="" id="gge26276" locked="0" /><polyline points="4051.2066 3312.4999 4057.7936 3312.4999" stroke-width="1"  stroke-linecap="round" fill="none" layerid="3" net="" id="gge26279" locked="0" /><polyline points="4213.2936 3294.4999 4206.7066 3294.4999" stroke-width="1"  stroke-linecap="round" fill="none" layerid="3" net="" id="gge26336" locked="0" /><polyline points="4206.7066 3296.4999 4213.2936 3296.4999" stroke-width="1"  stroke-linecap="round" fill="none" layerid="3" net="" id="gge26339" locked="0" /><polyline points="4129.7936 3257.4999 4123.2066 3257.4999" stroke-width="1"  stroke-linecap="round" fill="none" layerid="3" net="" id="gge26396" locked="0" /><polyline points="4123.2066 3259.4999 4129.7936 3259.4999" stroke-width="1"  stroke-linecap="round" fill="none" layerid="3" net="" id="gge26399" locked="0" /><polyline points="4183.9999 3338.7064 4183.9999 3345.2934" stroke-width="1"  stroke-linecap="round" fill="none" layerid="3" net="" id="gge26456" locked="0" /><polyline points="4185.9999 3345.2934 4185.9999 3338.7064" stroke-width="1"  stroke-linecap="round" fill="none" layerid="3" net="" id="gge26459" locked="0" /><polyline points="4116.7936 3322.9999 4110.2066 3322.9999" stroke-width="1"  stroke-linecap="round" fill="none" layerid="3" net="" id="gge26516" locked="0" /><polyline points="4110.2066 3324.9999 4116.7936 3324.9999" stroke-width="1"  stroke-linecap="round" fill="none" layerid="3" net="" id="gge26519" locked="0" /><polyline points="4213.2936 3271.9999 4206.7066 3271.9999" stroke-width="1"  stroke-linecap="round" fill="none" layerid="3" net="" id="gge26576" locked="0" /><polyline points="4206.7066 3273.9999 4213.2936 3273.9999" stroke-width="1"  stroke-linecap="round" fill="none" layerid="3" net="" id="gge26579" locked="0" /><polyline points="4028 3264 4027.9882 3292" stroke-width="1"  stroke-linecap="round" fill="none" layerid="3" net="" id="gge26897" locked="0" /><polyline points="4039 3264 4039.0118 3292" stroke-width="1"  stroke-linecap="round" fill="none" layerid="3" net="" id="gge26900" locked="0" /><polyline points="4039.0118 3292 4027.9882 3292" stroke-width="1"  stroke-linecap="round" fill="none" layerid="3" net="" id="gge26903" locked="0" /><polyline points="4039 3268.0168 4027.9764 3268.0168" stroke-width="1"  stroke-linecap="round" fill="none" layerid="3" net="" id="gge26906" locked="0" /><polyline points="4039 3264 4027.9764 3264" stroke-width="1"  stroke-linecap="round" fill="none" layerid="3" net="" id="gge26909" locked="0" /><polyline points="4205 3323.25 4205 3325.75 4207.5 3328.25 4202.5 3330.75 4207.5 3333.25 4202.5 3335.75 4207.5 3338.25 4202.5 3340.75 4205 3343.25 4205 3345.75" stroke-width="0.5"  stroke-linecap="round" fill="none" layerid="3" net="" id="gge27074" locked="0" /><polyline points="4209.921 3320.721 4209.921 3348.279 4200.079 3348.279 4200.079 3320.721 4209.921 3320.721" stroke-width="0.984"  stroke-linecap="round" fill="none" layerid="3" net="" id="gge27077" locked="0" /><polyline points="4149 3358.185 4141.0669 3358.185 4141.0669 3218.815 4161.9331 3218.815 4161.9331 3358.185 4154 3358.185" stroke-width="1"  stroke-linecap="round" fill="none" layerid="3" net="" id="gge27548" locked="0" /><polyline points="4073.9016 3254.6299 4099.0984 3254.6299" stroke-width="1"  stroke-linecap="round" fill="none" layerid="3" net="" id="gge28094" locked="0" /><polyline points="4073.9016 3333.3701 4073.9016 3332.2407" stroke-width="1"  stroke-linecap="round" fill="none" layerid="3" net="" id="gge28097" locked="0" /><polyline points="4073.9016 3325.7593 4073.9016 3322.2407" stroke-width="1"  stroke-linecap="round" fill="none" layerid="3" net="" id="gge28100" locked="0" /><polyline points="4073.9016 3315.7593 4073.9016 3312.2407" stroke-width="1"  stroke-linecap="round" fill="none" layerid="3" net="" id="gge28103" locked="0" /><polyline points="4073.9016 3305.7593 4073.9016 3302.2407" stroke-width="1"  stroke-linecap="round" fill="none" layerid="3" net="" id="gge28106" locked="0" /><polyline points="4073.9016 3295.7593 4073.9016 3292.2407" stroke-width="1"  stroke-linecap="round" fill="none" layerid="3" net="" id="gge28109" locked="0" /><polyline points="4073.9016 3285.7593 4073.9016 3282.2407" stroke-width="1"  stroke-linecap="round" fill="none" layerid="3" net="" id="gge28112" locked="0" /><polyline points="4073.9016 3275.7593 4073.9016 3272.2407" stroke-width="1"  stroke-linecap="round" fill="none" layerid="3" net="" id="gge28115" locked="0" /><polyline points="4073.9016 3265.7593 4073.9016 3262.2407" stroke-width="1"  stroke-linecap="round" fill="none" layerid="3" net="" id="gge28118" locked="0" /><polyline points="4073.9016 3255.7593 4073.9016 3254.6299" stroke-width="1"  stroke-linecap="round" fill="none" layerid="3" net="" id="gge28121" locked="0" /><polyline points="4099.0983 3333.3701 4099.0983 3333.2564" stroke-width="1"  stroke-linecap="round" fill="none" layerid="3" net="" id="gge28124" locked="0" /><polyline points="4099.0983 3324.7435 4099.0983 3322.2406" stroke-width="1"  stroke-linecap="round" fill="none" layerid="3" net="" id="gge28127" locked="0" /><polyline points="4099.0983 3315.7594 4099.0983 3312.2406" stroke-width="1"  stroke-linecap="round" fill="none" layerid="3" net="" id="gge28130" locked="0" /><polyline points="4099.0983 3305.7594 4099.0983 3302.2406" stroke-width="1"  stroke-linecap="round" fill="none" layerid="3" net="" id="gge28133" locked="0" /><polyline points="4099.0983 3295.7594 4099.0983 3292.2406" stroke-width="1"  stroke-linecap="round" fill="none" layerid="3" net="" id="gge28136" locked="0" /><polyline points="4099.0983 3285.7594 4099.0983 3282.2406" stroke-width="1"  stroke-linecap="round" fill="none" layerid="3" net="" id="gge28139" locked="0" /><polyline points="4099.0983 3275.7594 4099.0983 3272.2406" stroke-width="1"  stroke-linecap="round" fill="none" layerid="3" net="" id="gge28142" locked="0" /><polyline points="4099.0983 3265.7594 4099.0983 3262.2406" stroke-width="1"  stroke-linecap="round" fill="none" layerid="3" net="" id="gge28145" locked="0" /><polyline points="4099.0983 3255.7594 4099.0983 3254.6299" stroke-width="1"  stroke-linecap="round" fill="none" layerid="3" net="" id="gge28148" locked="0" /><polyline points="4099.0983 3333.3701 4089.4528 3333.3701" stroke-width="1"  stroke-linecap="round" fill="none" layerid="3" net="" id="gge28151" locked="0" /><polyline points="4073.9016 3333.3701 4083.5472 3333.3701" stroke-width="1"  stroke-linecap="round" fill="none" layerid="3" net="" id="gge28154" locked="0" /><polyline points="4215.1812 3209.6294 4215.1812 3251.3696 4196.2911 3251.3696 4196.2911 3209.6294 4215.1612 3209.6294 4215.1812 3209.6294" stroke-width="1"  stroke-linecap="round" fill="none" layerid="3" net="" id="gge28499" locked="0" /><polyline points="4212.8223 3251.3655 4212.8223 3209.6335" stroke-width="1"  stroke-linecap="round" fill="none" layerid="3" net="" id="gge28502" locked="0" /><polyline points="4200.1101 3289.0984 4200.1101 3263.9017" stroke-width="1.016"  stroke-linecap="round" fill="none" layerid="3" net="" id="gge28655" locked="0" /><polyline points="4185.8899 3263.9016 4185.8899 3289.0985" stroke-width="1.016"  stroke-linecap="round" fill="none" layerid="3" net="" id="gge28658" locked="0" /><polyline points="4202.1399 3263.9016 4202.1399 3289.0985" stroke-width="1.016"  stroke-linecap="round" fill="none" layerid="3" net="" id="gge28661" locked="0" /><polyline points="4183.8601 3289.0985 4183.8601 3263.9016" stroke-width="1.016"  stroke-linecap="round" fill="none" layerid="3" net="" id="gge28664" locked="0" /><polyline points="4064.5 3192 4064.5 3201.9 4044.5 3201.9 4044.5 3192 4064.5 3192" stroke-width="0.8"  stroke-linecap="round" fill="none" layerid="3" net="" id="gge31838" locked="0" /><polyline points="4110.5 3201.5 4110.5 3191.5 4150.5 3191.5 4150.5 3201.5 4143 3201.5" stroke-width="0.8"  stroke-linecap="round" fill="none" layerid="3" net="" id="gge31901" locked="0" /><polyline points="4110.5 3201.5 4143 3201.5" stroke-width="0.79921"  stroke-linecap="round" fill="none" layerid="3" net="" id="gge31904" locked="0" /><polyline points="4179.5 3191.5 4179.5 3201.4 4159.5 3201.4 4159.5 3191.5 4179.5 3191.5" stroke-width="0.8"  stroke-linecap="round" fill="none" layerid="3" net="" id="gge32003" locked="0" /><polyline points="4113.7936 3293.4999 4107.2066 3293.4999" stroke-width="1"  stroke-linecap="round" fill="none" layerid="3" net="" id="gge32565" locked="0" /><polyline points="4107.2066 3295.4999 4113.7936 3295.4999" stroke-width="1"  stroke-linecap="round" fill="none" layerid="3" net="" id="gge32568" locked="0" /><polyline points="4115.2936 3249.4999 4108.7066 3249.4999" stroke-width="1"  stroke-linecap="round" fill="none" layerid="3" net="" id="gge32625" locked="0" /><polyline points="4108.7066 3251.4999 4115.2936 3251.4999" stroke-width="1"  stroke-linecap="round" fill="none" layerid="3" net="" id="gge32628" locked="0" /><polyline points="4093.9999 3339.2064 4093.9999 3345.7934" stroke-width="1"  stroke-linecap="round" fill="none" layerid="3" net="" id="gge32685" locked="0" /><polyline points="4095.9999 3345.7934 4095.9999 3339.2064" stroke-width="1"  stroke-linecap="round" fill="none" layerid="3" net="" id="gge32688" locked="0" /><g c_partid="part_pcbtext" c_etype="" c_origin="4074.94,3256.79" c_rotation="0" c_mirror="0" id="gge34822" locked="0" layerid="3" c_shapetype="group" display="none"><path c_fontsize="4.5" c_fontfamily="" c_text="100nF" d="M 4074.9399 3253.07 L 4075.3499 3252.86 L 4075.9599 3252.25 L 4075.9599 3256.54 M 4078.5399 3252.25 L 4077.9299 3252.45 L 4077.5199 3253.07 L 4077.3099 3254.09 L 4077.3099 3254.7 L 4077.5199 3255.73 L 4077.9299 3256.34 L 4078.5399 3256.54 L 4078.9499 3256.54 L 4079.5599 3256.34 L 4079.9699 3255.73 L 4080.1799 3254.7 L 4080.1799 3254.09 L 4079.9699 3253.07 L 4079.5599 3252.45 L 4078.9499 3252.25 L 4078.5399 3252.25 M 4082.7499 3252.25 L 4082.1399 3252.45 L 4081.7299 3253.07 L 4081.5299 3254.09 L 4081.5299 3254.7 L 4081.7299 3255.73 L 4082.1399 3256.34 L 4082.7499 3256.54 L 4083.1599 3256.54 L 4083.7799 3256.34 L 4084.1899 3255.73 L 4084.3899 3254.7 L 4084.3899 3254.09 L 4084.1899 3253.07 L 4083.7799 3252.45 L 4083.1599 3252.25 L 4082.7499 3252.25 M 4085.7399 3253.68 L 4085.7399 3256.54 M 4085.7399 3254.5 L 4086.3499 3253.89 L 4086.7599 3253.68 L 4087.3799 3253.68 L 4087.7899 3253.89 L 4087.9899 3254.5 L 4087.9899 3256.54 M 4089.3399 3252.25 L 4089.3399 3256.54 M 4089.3399 3252.25 L 4091.9999 3252.25 M 4089.3399 3254.29 L 4090.9799 3254.29" fill="none"  stroke-width="0.6" c_note="note_name" /></g><g c_partid="part_pcbtext" c_etype="" c_origin="4072,3241.5" c_rotation="0" c_mirror="0" id="gge34828" locked="0" layerid="3" c_shapetype="group" ><path c_fontsize="4.5" c_fontfamily="" c_text="C14" d="M 4075.07 3237.98 L 4074.86 3237.57 L 4074.45 3237.16 L 4074.05 3236.96 L 4073.23 3236.96 L 4072.82 3237.16 L 4072.41 3237.57 L 4072.2 3237.98 L 4072 3238.6 L 4072 3239.62 L 4072.2 3240.23 L 4072.41 3240.64 L 4072.82 3241.05 L 4073.23 3241.25 L 4074.05 3241.25 L 4074.45 3241.05 L 4074.86 3240.64 L 4075.07 3240.23 M 4076.42 3237.78 L 4076.83 3237.57 L 4077.44 3236.96 L 4077.44 3241.25 M 4080.84 3236.96 L 4078.79 3239.82 L 4081.86 3239.82 M 4080.84 3236.96 L 4080.84 3241.25" fill="none"  stroke-width="0.6" c_note="note_pre" /></g><g c_partid="part_pcbtext" c_etype="" c_origin="4044.71,3361.79" c_rotation="0" c_mirror="0" id="gge35038" locked="0" layerid="3" c_shapetype="group" display="none"><path c_fontsize="4.5" c_fontfamily="" c_text="330" d="M 4045.12 3357.25 L 4047.37 3357.25 L 4046.14 3358.89 L 4046.76 3358.89 L 4047.16 3359.09 L 4047.37 3359.29 L 4047.57 3359.91 L 4047.57 3360.32 L 4047.37 3360.93 L 4046.96 3361.34 L 4046.35 3361.54 L 4045.73 3361.54 L 4045.12 3361.34 L 4044.91 3361.14 L 4044.71 3360.73 M 4049.33 3357.25 L 4051.58 3357.25 L 4050.36 3358.89 L 4050.97 3358.89 L 4051.38 3359.09 L 4051.58 3359.29 L 4051.79 3359.91 L 4051.79 3360.32 L 4051.58 3360.93 L 4051.17 3361.34 L 4050.56 3361.54 L 4049.95 3361.54 L 4049.33 3361.34 L 4049.13 3361.14 L 4048.92 3360.73 M 4054.36 3357.25 L 4053.75 3357.45 L 4053.34 3358.07 L 4053.14 3359.09 L 4053.14 3359.7 L 4053.34 3360.73 L 4053.75 3361.34 L 4054.36 3361.54 L 4054.77 3361.54 L 4055.39 3361.34 L 4055.8 3360.73 L 4056 3359.7 L 4056 3359.09 L 4055.8 3358.07 L 4055.39 3357.45 L 4054.77 3357.25 L 4054.36 3357.25" fill="none"  stroke-width="0.6" c_note="note_name" /></g><g c_partid="part_pcbtext" c_etype="" c_origin="4056,3350" c_rotation="180" c_mirror="0" id="gge35044" locked="0" layerid="3" c_shapetype="group" ><path c_fontsize="4.5" c_fontfamily="" c_text="R3" d="M 4056 3354.54 L 4056 3350.25 M 4056 3354.54 L 4054.16 3354.54 L 4053.55 3354.34 L 4053.34 3354.13 L 4053.14 3353.72 L 4053.14 3353.31 L 4053.34 3352.9 L 4053.55 3352.7 L 4054.16 3352.5 L 4056 3352.5 M 4054.57 3352.5 L 4053.14 3350.25 M 4051.38 3354.54 L 4049.13 3354.54 L 4050.35 3352.9 L 4049.74 3352.9 L 4049.33 3352.7 L 4049.13 3352.5 L 4048.92 3351.88 L 4048.92 3351.47 L 4049.13 3350.86 L 4049.54 3350.45 L 4050.15 3350.25 L 4050.76 3350.25 L 4051.38 3350.45 L 4051.58 3350.65 L 4051.79 3351.06" fill="none"  stroke-width="0.6" c_note="note_pre" /></g><g c_partid="part_pcbtext" c_etype="" c_origin="4086,3210" c_rotation="0" c_mirror="0" id="gge35092" locked="0" layerid="3" c_shapetype="group" display="none"><path c_fontsize="4.5" c_fontfamily="" c_text="PROGRAMMER" d="M 4086 3205.46 L 4086 3209.75 M 4086 3205.46 L 4087.84 3205.46 L 4088.45 3205.66 L 4088.66 3205.87 L 4088.86 3206.28 L 4088.86 3206.89 L 4088.66 3207.3 L 4088.45 3207.5 L 4087.84 3207.71 L 4086 3207.71 M 4090.21 3205.46 L 4090.21 3209.75 M 4090.21 3205.46 L 4092.05 3205.46 L 4092.67 3205.66 L 4092.87 3205.87 L 4093.08 3206.28 L 4093.08 3206.69 L 4092.87 3207.1 L 4092.67 3207.3 L 4092.05 3207.5 L 4090.21 3207.5 M 4091.65 3207.5 L 4093.08 3209.75 M 4095.65 3205.46 L 4095.25 3205.66 L 4094.84 3206.07 L 4094.63 3206.48 L 4094.43 3207.1 L 4094.43 3208.12 L 4094.63 3208.73 L 4094.84 3209.14 L 4095.25 3209.55 L 4095.65 3209.75 L 4096.47 3209.75 L 4096.88 3209.55 L 4097.29 3209.14 L 4097.5 3208.73 L 4097.7 3208.12 L 4097.7 3207.1 L 4097.5 3206.48 L 4097.29 3206.07 L 4096.88 3205.66 L 4096.47 3205.46 L 4095.65 3205.46 M 4102.12 3206.48 L 4101.91 3206.07 L 4101.5 3205.66 L 4101.1 3205.46 L 4100.28 3205.46 L 4099.87 3205.66 L 4099.46 3206.07 L 4099.25 3206.48 L 4099.05 3207.1 L 4099.05 3208.12 L 4099.25 3208.73 L 4099.46 3209.14 L 4099.87 3209.55 L 4100.28 3209.75 L 4101.1 3209.75 L 4101.5 3209.55 L 4101.91 3209.14 L 4102.12 3208.73 L 4102.12 3208.12 M 4101.1 3208.12 L 4102.12 3208.12 M 4103.47 3205.46 L 4103.47 3209.75 M 4103.47 3205.46 L 4105.31 3205.46 L 4105.92 3205.66 L 4106.13 3205.87 L 4106.33 3206.28 L 4106.33 3206.69 L 4106.13 3207.1 L 4105.92 3207.3 L 4105.31 3207.5 L 4103.47 3207.5 M 4104.9 3207.5 L 4106.33 3209.75 M 4109.32 3205.46 L 4107.68 3209.75 M 4109.32 3205.46 L 4110.95 3209.75 M 4108.3 3208.32 L 4110.34 3208.32 M 4112.3 3205.46 L 4112.3 3209.75 M 4112.3 3205.46 L 4113.94 3209.75 M 4115.58 3205.46 L 4113.94 3209.75 M 4115.58 3205.46 L 4115.58 3209.75 M 4116.93 3205.46 L 4116.93 3209.75 M 4116.93 3205.46 L 4118.56 3209.75 M 4120.2 3205.46 L 4118.56 3209.75 M 4120.2 3205.46 L 4120.2 3209.75 M 4121.55 3205.46 L 4121.55 3209.75 M 4121.55 3205.46 L 4124.21 3205.46 M 4121.55 3207.5 L 4123.19 3207.5 M 4121.55 3209.75 L 4124.21 3209.75 M 4125.56 3205.46 L 4125.56 3209.75 M 4125.56 3205.46 L 4127.4 3205.46 L 4128.01 3205.66 L 4128.22 3205.87 L 4128.42 3206.28 L 4128.42 3206.69 L 4128.22 3207.1 L 4128.01 3207.3 L 4127.4 3207.5 L 4125.56 3207.5 M 4126.99 3207.5 L 4128.42 3209.75" fill="none"  stroke-width="0.6" c_note="note_name" /></g><g c_partid="part_pcbtext" c_etype="" c_origin="4086,3217" c_rotation="0" c_mirror="0" id="gge35098" locked="0" layerid="3" c_shapetype="group" ><path c_fontsize="4.5" c_fontfamily="" c_text="U4" d="M 4086 3212.46 L 4086 3215.53 L 4086.2 3216.14 L 4086.61 3216.55 L 4087.23 3216.75 L 4087.64 3216.75 L 4088.25 3216.55 L 4088.66 3216.14 L 4088.86 3215.53 L 4088.86 3212.46 M 4092.26 3212.46 L 4090.21 3215.32 L 4093.28 3215.32 M 4092.26 3212.46 L 4092.26 3216.75" fill="none"  stroke-width="0.6" c_note="note_pre" /></g><g c_partid="part_pcbtext" c_etype="" c_origin="4025.58,3304.29" c_rotation="0" c_mirror="0" id="gge34741" locked="0" layerid="3" c_shapetype="group" display="none"><path c_fontsize="4.5" c_fontfamily="" c_text="PROG SW" d="M 4025.5801 3299.75 L 4025.5801 3304.04 M 4025.5801 3299.75 L 4027.4201 3299.75 L 4028.0301 3299.95 L 4028.2401 3300.16 L 4028.4401 3300.57 L 4028.4401 3301.18 L 4028.2401 3301.59 L 4028.0301 3301.79 L 4027.4201 3302 L 4025.5801 3302 M 4029.7901 3299.75 L 4029.7901 3304.04 M 4029.7901 3299.75 L 4031.6301 3299.75 L 4032.2501 3299.95 L 4032.4501 3300.16 L 4032.6601 3300.57 L 4032.6601 3300.98 L 4032.4501 3301.39 L 4032.2501 3301.59 L 4031.6301 3301.79 L 4029.7901 3301.79 M 4031.2301 3301.79 L 4032.6601 3304.04 M 4035.2301 3299.75 L 4034.8301 3299.95 L 4034.4201 3300.36 L 4034.2101 3300.77 L 4034.0101 3301.39 L 4034.0101 3302.41 L 4034.2101 3303.02 L 4034.4201 3303.43 L 4034.8301 3303.84 L 4035.2301 3304.04 L 4036.0501 3304.04 L 4036.4601 3303.84 L 4036.8701 3303.43 L 4037.0801 3303.02 L 4037.2801 3302.41 L 4037.2801 3301.39 L 4037.0801 3300.77 L 4036.8701 3300.36 L 4036.4601 3299.95 L 4036.0501 3299.75 L 4035.2301 3299.75 M 4041.7001 3300.77 L 4041.4901 3300.36 L 4041.0801 3299.95 L 4040.6801 3299.75 L 4039.8601 3299.75 L 4039.4501 3299.95 L 4039.0401 3300.36 L 4038.8301 3300.77 L 4038.6301 3301.39 L 4038.6301 3302.41 L 4038.8301 3303.02 L 4039.0401 3303.43 L 4039.4501 3303.84 L 4039.8601 3304.04 L 4040.6801 3304.04 L 4041.0801 3303.84 L 4041.4901 3303.43 L 4041.7001 3303.02 L 4041.7001 3302.41 M 4040.6801 3302.41 L 4041.7001 3302.41 M 4049.0601 3300.36 L 4048.6501 3299.95 L 4048.0401 3299.75 L 4047.2201 3299.75 L 4046.6101 3299.95 L 4046.2001 3300.36 L 4046.2001 3300.77 L 4046.4001 3301.18 L 4046.6101 3301.39 L 4047.0201 3301.59 L 4048.2401 3302 L 4048.6501 3302.2 L 4048.8601 3302.41 L 4049.0601 3302.82 L 4049.0601 3303.43 L 4048.6501 3303.84 L 4048.0401 3304.04 L 4047.2201 3304.04 L 4046.6101 3303.84 L 4046.2001 3303.43 M 4050.4101 3299.75 L 4051.4301 3304.04 M 4052.4601 3299.75 L 4051.4301 3304.04 M 4052.4601 3299.75 L 4053.4801 3304.04 M 4054.5001 3299.75 L 4053.4801 3304.04" fill="none"  stroke-width="0.6" c_note="note_name" /></g><g c_partid="part_pcbtext" c_etype="" c_origin="4050,3279.5" c_rotation="0" c_mirror="0" id="gge34747" locked="0" layerid="3" c_shapetype="group" ><path c_fontsize="4.5" c_fontfamily="" c_text="PROG" d="M 4050 3274.96 L 4050 3279.25 M 4050 3274.96 L 4051.84 3274.96 L 4052.45 3275.16 L 4052.66 3275.37 L 4052.86 3275.78 L 4052.86 3276.39 L 4052.66 3276.8 L 4052.45 3277 L 4051.84 3277.21 L 4050 3277.21 M 4054.21 3274.96 L 4054.21 3279.25 M 4054.21 3274.96 L 4056.05 3274.96 L 4056.67 3275.16 L 4056.87 3275.37 L 4057.08 3275.78 L 4057.08 3276.19 L 4056.87 3276.6 L 4056.67 3276.8 L 4056.05 3277 L 4054.21 3277 M 4055.65 3277 L 4057.08 3279.25 M 4059.65 3274.96 L 4059.25 3275.16 L 4058.84 3275.57 L 4058.63 3275.98 L 4058.43 3276.6 L 4058.43 3277.62 L 4058.63 3278.23 L 4058.84 3278.64 L 4059.25 3279.05 L 4059.65 3279.25 L 4060.47 3279.25 L 4060.88 3279.05 L 4061.29 3278.64 L 4061.5 3278.23 L 4061.7 3277.62 L 4061.7 3276.6 L 4061.5 3275.98 L 4061.29 3275.57 L 4060.88 3275.16 L 4060.47 3274.96 L 4059.65 3274.96 M 4066.12 3275.98 L 4065.91 3275.57 L 4065.5 3275.16 L 4065.1 3274.96 L 4064.28 3274.96 L 4063.87 3275.16 L 4063.46 3275.57 L 4063.25 3275.98 L 4063.05 3276.6 L 4063.05 3277.62 L 4063.25 3278.23 L 4063.46 3278.64 L 4063.87 3279.05 L 4064.28 3279.25 L 4065.1 3279.25 L 4065.5 3279.05 L 4065.91 3278.64 L 4066.12 3278.23 L 4066.12 3277.62 M 4065.1 3277.62 L 4066.12 3277.62" fill="none"  stroke-width="0.6" c_note="note_pre" /></g><g c_partid="part_pcbtext" c_etype="" c_origin="4036.5,3248" c_rotation="90" c_mirror="0" id="gge27116" locked="0" layerid="3" c_shapetype="group" display="none"><path c_fontsize="4.5" c_fontfamily="" c_text="500" d="M 4031.96 3245.55 L 4031.96 3247.59 L 4033.8 3247.8 L 4033.6 3247.59 L 4033.39 3246.98 L 4033.39 3246.36 L 4033.6 3245.75 L 4034 3245.34 L 4034.62 3245.14 L 4035.03 3245.14 L 4035.64 3245.34 L 4036.05 3245.75 L 4036.25 3246.36 L 4036.25 3246.98 L 4036.05 3247.59 L 4035.85 3247.8 L 4035.44 3248 M 4031.96 3242.56 L 4032.16 3243.17 L 4032.78 3243.58 L 4033.8 3243.79 L 4034.41 3243.79 L 4035.44 3243.58 L 4036.05 3243.17 L 4036.25 3242.56 L 4036.25 3242.15 L 4036.05 3241.54 L 4035.44 3241.13 L 4034.41 3240.92 L 4033.8 3240.92 L 4032.78 3241.13 L 4032.16 3241.54 L 4031.96 3242.15 L 4031.96 3242.56 M 4031.96 3238.35 L 4032.16 3238.96 L 4032.78 3239.37 L 4033.8 3239.57 L 4034.41 3239.57 L 4035.44 3239.37 L 4036.05 3238.96 L 4036.25 3238.35 L 4036.25 3237.94 L 4036.05 3237.32 L 4035.44 3236.91 L 4034.41 3236.71 L 4033.8 3236.71 L 4032.78 3236.91 L 4032.16 3237.32 L 4031.96 3237.94 L 4031.96 3238.35" fill="none"  stroke-width="0.6" c_note="note_name" /></g><g c_partid="part_pcbtext" c_etype="" c_origin="4062,3241.5" c_rotation="90" c_mirror="0" id="gge27122" locked="0" layerid="3" c_shapetype="group" ><path c_fontsize="4.5" c_fontfamily="" c_text="R2" d="M 4057.46 3241.5 L 4061.75 3241.5 M 4057.46 3241.5 L 4057.46 3239.66 L 4057.66 3239.05 L 4057.87 3238.84 L 4058.28 3238.64 L 4058.69 3238.64 L 4059.1 3238.84 L 4059.3 3239.05 L 4059.5 3239.66 L 4059.5 3241.5 M 4059.5 3240.07 L 4061.75 3238.64 M 4058.48 3237.08 L 4058.28 3237.08 L 4057.87 3236.88 L 4057.66 3236.67 L 4057.46 3236.26 L 4057.46 3235.45 L 4057.66 3235.04 L 4057.87 3234.83 L 4058.28 3234.63 L 4058.69 3234.63 L 4059.1 3234.83 L 4059.71 3235.24 L 4061.75 3237.29 L 4061.75 3234.42" fill="none"  stroke-width="0.6" c_note="note_pre" /></g><g c_partid="part_pcbtext" c_etype="" c_origin="4036.5,3302" c_rotation="0" c_mirror="0" id="gge35524" locked="0" layerid="3" c_shapetype="group" display="none"><path c_fontsize="4.5" c_fontfamily="" c_text="PWR" d="M 4036.5 3297.46 L 4036.5 3301.75 M 4036.5 3297.46 L 4038.34 3297.46 L 4038.95 3297.66 L 4039.16 3297.87 L 4039.36 3298.28 L 4039.36 3298.89 L 4039.16 3299.3 L 4038.95 3299.5 L 4038.34 3299.71 L 4036.5 3299.71 M 4040.71 3297.46 L 4041.74 3301.75 M 4042.76 3297.46 L 4041.74 3301.75 M 4042.76 3297.46 L 4043.78 3301.75 M 4044.8 3297.46 L 4043.78 3301.75 M 4046.15 3297.46 L 4046.15 3301.75 M 4046.15 3297.46 L 4048 3297.46 L 4048.61 3297.66 L 4048.81 3297.87 L 4049.02 3298.28 L 4049.02 3298.69 L 4048.81 3299.1 L 4048.61 3299.3 L 4048 3299.5 L 4046.15 3299.5 M 4047.59 3299.5 L 4049.02 3301.75" fill="none"  stroke-width="0.6" c_note="note_name" /></g><g c_partid="part_pcbtext" c_etype="" c_origin="4021.5,3324" c_rotation="0" c_mirror="0" id="gge35530" locked="0" layerid="3" c_shapetype="group" ><path c_fontsize="4.5" c_fontfamily="" c_text="D1" d="M 4021.5 3319.46 L 4021.5 3323.75 M 4021.5 3319.46 L 4022.93 3319.46 L 4023.55 3319.66 L 4023.95 3320.07 L 4024.16 3320.48 L 4024.36 3321.1 L 4024.36 3322.12 L 4024.16 3322.73 L 4023.95 3323.14 L 4023.55 3323.55 L 4022.93 3323.75 L 4021.5 3323.75 M 4025.71 3320.28 L 4026.12 3320.07 L 4026.74 3319.46 L 4026.74 3323.75" fill="none"  stroke-width="0.6" c_note="note_pre" /></g><g c_partid="part_pcbtext" c_etype="" c_origin="4033.5,3203.5" c_rotation="0" c_mirror="0" id="gge35584" locked="0" layerid="3" c_shapetype="group" display="none"><path c_fontsize="4.5" c_fontfamily="" c_text="COMM" d="M 4036.57 3199.98 L 4036.36 3199.57 L 4035.95 3199.16 L 4035.55 3198.96 L 4034.73 3198.96 L 4034.32 3199.16 L 4033.91 3199.57 L 4033.7 3199.98 L 4033.5 3200.6 L 4033.5 3201.62 L 4033.7 3202.23 L 4033.91 3202.64 L 4034.32 3203.05 L 4034.73 3203.25 L 4035.55 3203.25 L 4035.95 3203.05 L 4036.36 3202.64 L 4036.57 3202.23 M 4039.15 3198.96 L 4038.74 3199.16 L 4038.33 3199.57 L 4038.12 3199.98 L 4037.92 3200.6 L 4037.92 3201.62 L 4038.12 3202.23 L 4038.33 3202.64 L 4038.74 3203.05 L 4039.15 3203.25 L 4039.96 3203.25 L 4040.37 3203.05 L 4040.78 3202.64 L 4040.99 3202.23 L 4041.19 3201.62 L 4041.19 3200.6 L 4040.99 3199.98 L 4040.78 3199.57 L 4040.37 3199.16 L 4039.96 3198.96 L 4039.15 3198.96 M 4042.54 3198.96 L 4042.54 3203.25 M 4042.54 3198.96 L 4044.18 3203.25 M 4045.81 3198.96 L 4044.18 3203.25 M 4045.81 3198.96 L 4045.81 3203.25 M 4047.16 3198.96 L 4047.16 3203.25 M 4047.16 3198.96 L 4048.8 3203.25 M 4050.44 3198.96 L 4048.8 3203.25 M 4050.44 3198.96 L 4050.44 3203.25" fill="none"  stroke-width="0.6" c_note="note_name" /></g><g c_partid="part_pcbtext" c_etype="" c_origin="4022.5,3244" c_rotation="0" c_mirror="0" id="gge35590" locked="0" layerid="3" c_shapetype="group" ><path c_fontsize="4.5" c_fontfamily="" c_text="D3" d="M 4022.5 3239.46 L 4022.5 3243.75 M 4022.5 3239.46 L 4023.93 3239.46 L 4024.55 3239.66 L 4024.95 3240.07 L 4025.16 3240.48 L 4025.36 3241.1 L 4025.36 3242.12 L 4025.16 3242.73 L 4024.95 3243.14 L 4024.55 3243.55 L 4023.93 3243.75 L 4022.5 3243.75 M 4027.12 3239.46 L 4029.37 3239.46 L 4028.15 3241.1 L 4028.76 3241.1 L 4029.17 3241.3 L 4029.37 3241.5 L 4029.58 3242.12 L 4029.58 3242.53 L 4029.37 3243.14 L 4028.96 3243.55 L 4028.35 3243.75 L 4027.74 3243.75 L 4027.12 3243.55 L 4026.92 3243.35 L 4026.71 3242.94" fill="none"  stroke-width="0.6" c_note="note_pre" /></g><g c_partid="part_pcbtext" c_etype="" c_origin="4164,3214" c_rotation="90" c_mirror="0" id="gge25976" locked="0" layerid="3" c_shapetype="group" display="none"><path c_fontsize="4.5" c_fontfamily="" c_text="10UF" d="M 4160.28 3214 L 4160.07 3213.59 L 4159.46 3212.98 L 4163.75 3212.98 M 4159.46 3210.4 L 4159.66 3211.01 L 4160.28 3211.42 L 4161.3 3211.63 L 4161.91 3211.63 L 4162.94 3211.42 L 4163.55 3211.01 L 4163.75 3210.4 L 4163.75 3209.99 L 4163.55 3209.38 L 4162.94 3208.97 L 4161.91 3208.76 L 4161.3 3208.76 L 4160.28 3208.97 L 4159.66 3209.38 L 4159.46 3209.99 L 4159.46 3210.4 M 4159.46 3207.41 L 4162.53 3207.41 L 4163.14 3207.21 L 4163.55 3206.8 L 4163.75 3206.19 L 4163.75 3205.78 L 4163.55 3205.16 L 4163.14 3204.75 L 4162.53 3204.55 L 4159.46 3204.55 M 4159.46 3203.2 L 4163.75 3203.2 M 4159.46 3203.2 L 4159.46 3200.54 M 4161.5 3203.2 L 4161.5 3201.56" fill="none"  stroke-width="0.6" c_note="note_name" /></g><g c_partid="part_pcbtext" c_etype="" c_origin="4170.5,3228.5" c_rotation="0" c_mirror="0" id="gge25982" locked="0" layerid="3" c_shapetype="group" ><path c_fontsize="4.5" c_fontfamily="" c_text="C1" d="M 4173.57 3224.98 L 4173.36 3224.57 L 4172.95 3224.16 L 4172.55 3223.96 L 4171.73 3223.96 L 4171.32 3224.16 L 4170.91 3224.57 L 4170.7 3224.98 L 4170.5 3225.6 L 4170.5 3226.62 L 4170.7 3227.23 L 4170.91 3227.64 L 4171.32 3228.05 L 4171.73 3228.25 L 4172.55 3228.25 L 4172.95 3228.05 L 4173.36 3227.64 L 4173.57 3227.23 M 4174.92 3224.78 L 4175.33 3224.57 L 4175.94 3223.96 L 4175.94 3228.25" fill="none"  stroke-width="0.6" c_note="note_pre" /></g><g c_partid="part_pcbtext" c_etype="" c_origin="4169.04,3264.29" c_rotation="0" c_mirror="0" id="gge26030" locked="0" layerid="3" c_shapetype="group" display="none"><path c_fontsize="4.5" c_fontfamily="" c_text="10UF" d="M 4169.04 3260.57 L 4169.45 3260.36 L 4170.06 3259.75 L 4170.06 3264.04 M 4172.64 3259.75 L 4172.03 3259.95 L 4171.62 3260.57 L 4171.41 3261.59 L 4171.41 3262.2 L 4171.62 3263.23 L 4172.03 3263.84 L 4172.64 3264.04 L 4173.05 3264.04 L 4173.66 3263.84 L 4174.07 3263.23 L 4174.28 3262.2 L 4174.28 3261.59 L 4174.07 3260.57 L 4173.66 3259.95 L 4173.05 3259.75 L 4172.64 3259.75 M 4175.63 3259.75 L 4175.63 3262.82 L 4175.83 3263.43 L 4176.24 3263.84 L 4176.85 3264.04 L 4177.26 3264.04 L 4177.88 3263.84 L 4178.29 3263.43 L 4178.49 3262.82 L 4178.49 3259.75 M 4179.84 3259.75 L 4179.84 3264.04 M 4179.84 3259.75 L 4182.5 3259.75 M 4179.84 3261.79 L 4181.48 3261.79" fill="none"  stroke-width="0.6" c_note="note_name" /></g><g c_partid="part_pcbtext" c_etype="" c_origin="4187.5,3256" c_rotation="0" c_mirror="0" id="gge26036" locked="0" layerid="3" c_shapetype="group" ><path c_fontsize="4.5" c_fontfamily="" c_text="C2" d="M 4190.57 3252.48 L 4190.36 3252.07 L 4189.95 3251.66 L 4189.55 3251.46 L 4188.73 3251.46 L 4188.32 3251.66 L 4187.91 3252.07 L 4187.7 3252.48 L 4187.5 3253.1 L 4187.5 3254.12 L 4187.7 3254.73 L 4187.91 3255.14 L 4188.32 3255.55 L 4188.73 3255.75 L 4189.55 3255.75 L 4189.95 3255.55 L 4190.36 3255.14 L 4190.57 3254.73 M 4192.12 3252.48 L 4192.12 3252.28 L 4192.33 3251.87 L 4192.53 3251.66 L 4192.94 3251.46 L 4193.76 3251.46 L 4194.17 3251.66 L 4194.37 3251.87 L 4194.58 3252.28 L 4194.58 3252.69 L 4194.37 3253.1 L 4193.96 3253.71 L 4191.92 3255.75 L 4194.78 3255.75" fill="none"  stroke-width="0.6" c_note="note_pre" /></g><g c_partid="part_pcbtext" c_etype="" c_origin="4142.79,3294.56" c_rotation="90" c_mirror="0" id="gge26084" locked="0" layerid="3" c_shapetype="group" display="none"><path c_fontsize="4.5" c_fontfamily="" c_text="100nF" d="M 4139.07 3294.5601 L 4138.86 3294.1501 L 4138.25 3293.5401 L 4142.54 3293.5401 M 4138.25 3290.9601 L 4138.45 3291.5701 L 4139.07 3291.9801 L 4140.09 3292.1901 L 4140.7 3292.1901 L 4141.73 3291.9801 L 4142.34 3291.5701 L 4142.54 3290.9601 L 4142.54 3290.5501 L 4142.34 3289.9401 L 4141.73 3289.5301 L 4140.7 3289.3201 L 4140.09 3289.3201 L 4139.07 3289.5301 L 4138.45 3289.9401 L 4138.25 3290.5501 L 4138.25 3290.9601 M 4138.25 3286.7501 L 4138.45 3287.3601 L 4139.07 3287.7701 L 4140.09 3287.9701 L 4140.7 3287.9701 L 4141.73 3287.7701 L 4142.34 3287.3601 L 4142.54 3286.7501 L 4142.54 3286.3401 L 4142.34 3285.7201 L 4141.73 3285.3101 L 4140.7 3285.1101 L 4140.09 3285.1101 L 4139.07 3285.3101 L 4138.45 3285.7201 L 4138.25 3286.3401 L 4138.25 3286.7501 M 4139.68 3283.7601 L 4142.54 3283.7601 M 4140.5 3283.7601 L 4139.89 3283.1501 L 4139.68 3282.7401 L 4139.68 3282.1201 L 4139.89 3281.7101 L 4140.5 3281.5101 L 4142.54 3281.5101 M 4138.25 3280.1601 L 4142.54 3280.1601 M 4138.25 3280.1601 L 4138.25 3277.5001 M 4140.29 3280.1601 L 4140.29 3278.5201" fill="none"  stroke-width="0.6" c_note="note_name" /></g><g c_partid="part_pcbtext" c_etype="" c_origin="4115.5,3272.5" c_rotation="270" c_mirror="0" id="gge26090" locked="0" layerid="3" c_shapetype="group" ><path c_fontsize="4.5" c_fontfamily="" c_text="C3" d="M 4119.02 3275.57 L 4119.43 3275.36 L 4119.84 3274.95 L 4120.04 3274.55 L 4120.04 3273.73 L 4119.84 3273.32 L 4119.43 3272.91 L 4119.02 3272.7 L 4118.4 3272.5 L 4117.38 3272.5 L 4116.77 3272.7 L 4116.36 3272.91 L 4115.95 3273.32 L 4115.75 3273.73 L 4115.75 3274.55 L 4115.95 3274.95 L 4116.36 3275.36 L 4116.77 3275.57 M 4120.04 3277.33 L 4120.04 3279.58 L 4118.4 3278.35 L 4118.4 3278.96 L 4118.2 3279.37 L 4118 3279.58 L 4117.38 3279.78 L 4116.97 3279.78 L 4116.36 3279.58 L 4115.95 3279.17 L 4115.75 3278.55 L 4115.75 3277.94 L 4115.95 3277.33 L 4116.15 3277.12 L 4116.56 3276.92" fill="none"  stroke-width="0.6" c_note="note_pre" /></g><g c_partid="part_pcbtext" c_etype="" c_origin="4139,3199.5" c_rotation="0" c_mirror="0" id="gge26144" locked="0" layerid="3" c_shapetype="group" display="none"><path c_fontsize="4.5" c_fontfamily="" c_text="10pF" d="M 4139 3195.78 L 4139.41 3195.57 L 4140.02 3194.96 L 4140.02 3199.25 M 4142.6 3194.96 L 4141.99 3195.16 L 4141.58 3195.78 L 4141.37 3196.8 L 4141.37 3197.41 L 4141.58 3198.44 L 4141.99 3199.05 L 4142.6 3199.25 L 4143.01 3199.25 L 4143.62 3199.05 L 4144.03 3198.44 L 4144.24 3197.41 L 4144.24 3196.8 L 4144.03 3195.78 L 4143.62 3195.16 L 4143.01 3194.96 L 4142.6 3194.96 M 4145.59 3196.39 L 4145.59 3200.69 M 4145.59 3197 L 4146 3196.6 L 4146.4 3196.39 L 4147.02 3196.39 L 4147.43 3196.6 L 4147.84 3197 L 4148.04 3197.62 L 4148.04 3198.03 L 4147.84 3198.64 L 4147.43 3199.05 L 4147.02 3199.25 L 4146.4 3199.25 L 4146 3199.05 L 4145.59 3198.64 M 4149.39 3194.96 L 4149.39 3199.25 M 4149.39 3194.96 L 4152.05 3194.96 M 4149.39 3197 L 4151.03 3197" fill="none"  stroke-width="0.6" c_note="note_name" /></g><g c_partid="part_pcbtext" c_etype="" c_origin="4136,3221" c_rotation="0" c_mirror="0" id="gge26150" locked="0" layerid="3" c_shapetype="group" ><path c_fontsize="4.5" c_fontfamily="" c_text="C4" d="M 4139.07 3217.48 L 4138.86 3217.07 L 4138.45 3216.66 L 4138.05 3216.46 L 4137.23 3216.46 L 4136.82 3216.66 L 4136.41 3217.07 L 4136.2 3217.48 L 4136 3218.1 L 4136 3219.12 L 4136.2 3219.73 L 4136.41 3220.14 L 4136.82 3220.55 L 4137.23 3220.75 L 4138.05 3220.75 L 4138.45 3220.55 L 4138.86 3220.14 L 4139.07 3219.73 M 4142.46 3216.46 L 4140.42 3219.32 L 4143.49 3219.32 M 4142.46 3216.46 L 4142.46 3220.75" fill="none"  stroke-width="0.6" c_note="note_pre" /></g><g c_partid="part_pcbtext" c_etype="" c_origin="4193.29,3303.56" c_rotation="90" c_mirror="0" id="gge26204" locked="0" layerid="3" c_shapetype="group" display="none"><path c_fontsize="4.5" c_fontfamily="" c_text="100nF" d="M 4189.57 3303.5601 L 4189.36 3303.1501 L 4188.75 3302.5401 L 4193.04 3302.5401 M 4188.75 3299.9601 L 4188.95 3300.5701 L 4189.57 3300.9801 L 4190.59 3301.1901 L 4191.2 3301.1901 L 4192.23 3300.9801 L 4192.84 3300.5701 L 4193.04 3299.9601 L 4193.04 3299.5501 L 4192.84 3298.9401 L 4192.23 3298.5301 L 4191.2 3298.3201 L 4190.59 3298.3201 L 4189.57 3298.5301 L 4188.95 3298.9401 L 4188.75 3299.5501 L 4188.75 3299.9601 M 4188.75 3295.7501 L 4188.95 3296.3601 L 4189.57 3296.7701 L 4190.59 3296.9701 L 4191.2 3296.9701 L 4192.23 3296.7701 L 4192.84 3296.3601 L 4193.04 3295.7501 L 4193.04 3295.3401 L 4192.84 3294.7201 L 4192.23 3294.3101 L 4191.2 3294.1101 L 4190.59 3294.1101 L 4189.57 3294.3101 L 4188.95 3294.7201 L 4188.75 3295.3401 L 4188.75 3295.7501 M 4190.18 3292.7601 L 4193.04 3292.7601 M 4191 3292.7601 L 4190.39 3292.1501 L 4190.18 3291.7401 L 4190.18 3291.1201 L 4190.39 3290.7101 L 4191 3290.5101 L 4193.04 3290.5101 M 4188.75 3289.1601 L 4193.04 3289.1601 M 4188.75 3289.1601 L 4188.75 3286.5001 M 4190.79 3289.1601 L 4190.79 3287.5201" fill="none"  stroke-width="0.6" c_note="note_name" /></g><g c_partid="part_pcbtext" c_etype="" c_origin="4187.5,3291" c_rotation="90" c_mirror="0" id="gge26210" locked="0" layerid="3" c_shapetype="group" ><path c_fontsize="4.5" c_fontfamily="" c_text="C5" d="M 4183.98 3287.93 L 4183.57 3288.14 L 4183.16 3288.55 L 4182.96 3288.95 L 4182.96 3289.77 L 4183.16 3290.18 L 4183.57 3290.59 L 4183.98 3290.8 L 4184.6 3291 L 4185.62 3291 L 4186.23 3290.8 L 4186.64 3290.59 L 4187.05 3290.18 L 4187.25 3289.77 L 4187.25 3288.95 L 4187.05 3288.55 L 4186.64 3288.14 L 4186.23 3287.93 M 4182.96 3284.13 L 4182.96 3286.17 L 4184.8 3286.38 L 4184.6 3286.17 L 4184.39 3285.56 L 4184.39 3284.95 L 4184.6 3284.33 L 4185 3283.92 L 4185.62 3283.72 L 4186.03 3283.72 L 4186.64 3283.92 L 4187.05 3284.33 L 4187.25 3284.95 L 4187.25 3285.56 L 4187.05 3286.17 L 4186.85 3286.38 L 4186.44 3286.58" fill="none"  stroke-width="0.6" c_note="note_pre" /></g><g c_partid="part_pcbtext" c_etype="" c_origin="4069.85,3323.55" c_rotation="90" c_mirror="0" id="gge26264" locked="0" layerid="3" c_shapetype="group" display="none"><path c_fontsize="4.5" c_fontfamily="" c_text="10pF" d="M 4066.1301 3323.5498 L 4065.9201 3323.1398 L 4065.3101 3322.5298 L 4069.6001 3322.5298 M 4065.3101 3319.9498 L 4065.5101 3320.5598 L 4066.1301 3320.9698 L 4067.1501 3321.1798 L 4067.7601 3321.1798 L 4068.7901 3320.9698 L 4069.4001 3320.5598 L 4069.6001 3319.9498 L 4069.6001 3319.5398 L 4069.4001 3318.9298 L 4068.7901 3318.5198 L 4067.7601 3318.3098 L 4067.1501 3318.3098 L 4066.1301 3318.5198 L 4065.5101 3318.9298 L 4065.3101 3319.5398 L 4065.3101 3319.9498 M 4066.7401 3316.9598 L 4071.0401 3316.9598 M 4067.3501 3316.9598 L 4066.9501 3316.5498 L 4066.7401 3316.1498 L 4066.7401 3315.5298 L 4066.9501 3315.1198 L 4067.3501 3314.7098 L 4067.9701 3314.5098 L 4068.3801 3314.5098 L 4068.9901 3314.7098 L 4069.4001 3315.1198 L 4069.6001 3315.5298 L 4069.6001 3316.1498 L 4069.4001 3316.5498 L 4068.9901 3316.9598 M 4065.3101 3313.1598 L 4069.6001 3313.1598 M 4065.3101 3313.1598 L 4065.3101 3310.4998 M 4067.3501 3313.1598 L 4067.3501 3311.5198" fill="none"  stroke-width="0.6" c_note="note_name" /></g><g c_partid="part_pcbtext" c_etype="" c_origin="4050,3327" c_rotation="0" c_mirror="0" id="gge26270" locked="0" layerid="3" c_shapetype="group" ><path c_fontsize="4.5" c_fontfamily="" c_text="C6" d="M 4053.07 3323.48 L 4052.86 3323.07 L 4052.45 3322.66 L 4052.05 3322.46 L 4051.23 3322.46 L 4050.82 3322.66 L 4050.41 3323.07 L 4050.2 3323.48 L 4050 3324.1 L 4050 3325.12 L 4050.2 3325.73 L 4050.41 3326.14 L 4050.82 3326.55 L 4051.23 3326.75 L 4052.05 3326.75 L 4052.45 3326.55 L 4052.86 3326.14 L 4053.07 3325.73 M 4056.87 3323.07 L 4056.67 3322.66 L 4056.05 3322.46 L 4055.65 3322.46 L 4055.03 3322.66 L 4054.62 3323.28 L 4054.42 3324.3 L 4054.42 3325.32 L 4054.62 3326.14 L 4055.03 3326.55 L 4055.65 3326.75 L 4055.85 3326.75 L 4056.46 3326.55 L 4056.87 3326.14 L 4057.08 3325.53 L 4057.08 3325.32 L 4056.87 3324.71 L 4056.46 3324.3 L 4055.85 3324.1 L 4055.65 3324.1 L 4055.03 3324.3 L 4054.62 3324.71 L 4054.42 3325.32" fill="none"  stroke-width="0.6" c_note="note_pre" /></g><g c_partid="part_pcbtext" c_etype="" c_origin="4225.35,3309.39" c_rotation="90" c_mirror="0" id="gge26324" locked="0" layerid="3" c_shapetype="group" display="none"><path c_fontsize="4.5" c_fontfamily="" c_text="22pF" d="M 4221.8301 3309.1901 L 4221.6301 3309.1901 L 4221.2201 3308.9801 L 4221.0101 3308.7801 L 4220.8101 3308.3701 L 4220.8101 3307.5501 L 4221.0101 3307.1401 L 4221.2201 3306.9401 L 4221.6301 3306.7301 L 4222.0401 3306.7301 L 4222.4501 3306.9401 L 4223.0601 3307.3401 L 4225.1001 3309.3901 L 4225.1001 3306.5301 M 4221.8301 3304.9701 L 4221.6301 3304.9701 L 4221.2201 3304.7701 L 4221.0101 3304.5601 L 4220.8101 3304.1501 L 4220.8101 3303.3401 L 4221.0101 3302.9301 L 4221.2201 3302.7201 L 4221.6301 3302.5201 L 4222.0401 3302.5201 L 4222.4501 3302.7201 L 4223.0601 3303.1301 L 4225.1001 3305.1801 L 4225.1001 3302.3101 M 4222.2401 3300.9601 L 4226.5401 3300.9601 M 4222.8501 3300.9601 L 4222.4501 3300.5501 L 4222.2401 3300.1401 L 4222.2401 3299.5301 L 4222.4501 3299.1201 L 4222.8501 3298.7101 L 4223.4701 3298.5101 L 4223.8801 3298.5101 L 4224.4901 3298.7101 L 4224.9001 3299.1201 L 4225.1001 3299.5301 L 4225.1001 3300.1401 L 4224.9001 3300.5501 L 4224.4901 3300.9601 M 4220.8101 3297.1601 L 4225.1001 3297.1601 M 4220.8101 3297.1601 L 4220.8101 3294.5001 M 4222.8501 3297.1601 L 4222.8501 3295.5201" fill="none"  stroke-width="0.6" c_note="note_name" /></g><g c_partid="part_pcbtext" c_etype="" c_origin="4208,3305.5" c_rotation="270" c_mirror="0" id="gge26330" locked="0" layerid="3" c_shapetype="group" ><path c_fontsize="4.5" c_fontfamily="" c_text="C7" d="M 4211.52 3308.57 L 4211.93 3308.36 L 4212.34 3307.95 L 4212.54 3307.55 L 4212.54 3306.73 L 4212.34 3306.32 L 4211.93 3305.91 L 4211.52 3305.7 L 4210.9 3305.5 L 4209.88 3305.5 L 4209.27 3305.7 L 4208.86 3305.91 L 4208.45 3306.32 L 4208.25 3306.73 L 4208.25 3307.55 L 4208.45 3307.95 L 4208.86 3308.36 L 4209.27 3308.57 M 4212.54 3312.78 L 4208.25 3310.74 M 4212.54 3309.92 L 4212.54 3312.78" fill="none"  stroke-width="0.6" c_note="note_pre" /></g><g c_partid="part_pcbtext" c_etype="" c_origin="4143.29,3274.56" c_rotation="90" c_mirror="0" id="gge26384" locked="0" layerid="3" c_shapetype="group" display="none"><path c_fontsize="4.5" c_fontfamily="" c_text="100nF" d="M 4139.57 3274.5601 L 4139.36 3274.1501 L 4138.75 3273.5401 L 4143.04 3273.5401 M 4138.75 3270.9601 L 4138.95 3271.5701 L 4139.57 3271.9801 L 4140.59 3272.1901 L 4141.2 3272.1901 L 4142.23 3271.9801 L 4142.84 3271.5701 L 4143.04 3270.9601 L 4143.04 3270.5501 L 4142.84 3269.9401 L 4142.23 3269.5301 L 4141.2 3269.3201 L 4140.59 3269.3201 L 4139.57 3269.5301 L 4138.95 3269.9401 L 4138.75 3270.5501 L 4138.75 3270.9601 M 4138.75 3266.7501 L 4138.95 3267.3601 L 4139.57 3267.7701 L 4140.59 3267.9701 L 4141.2 3267.9701 L 4142.23 3267.7701 L 4142.84 3267.3601 L 4143.04 3266.7501 L 4143.04 3266.3401 L 4142.84 3265.7201 L 4142.23 3265.3101 L 4141.2 3265.1101 L 4140.59 3265.1101 L 4139.57 3265.3101 L 4138.95 3265.7201 L 4138.75 3266.3401 L 4138.75 3266.7501 M 4140.18 3263.7601 L 4143.04 3263.7601 M 4141 3263.7601 L 4140.39 3263.1501 L 4140.18 3262.7401 L 4140.18 3262.1201 L 4140.39 3261.7101 L 4141 3261.5101 L 4143.04 3261.5101 M 4138.75 3260.1601 L 4143.04 3260.1601 M 4138.75 3260.1601 L 4138.75 3257.5001 M 4140.79 3260.1601 L 4140.79 3258.5201" fill="none"  stroke-width="0.6" c_note="note_name" /></g><g c_partid="part_pcbtext" c_etype="" c_origin="4131.5,3257.5" c_rotation="270" c_mirror="0" id="gge26390" locked="0" layerid="3" c_shapetype="group" ><path c_fontsize="4.5" c_fontfamily="" c_text="C8" d="M 4135.02 3260.57 L 4135.43 3260.36 L 4135.84 3259.95 L 4136.04 3259.55 L 4136.04 3258.73 L 4135.84 3258.32 L 4135.43 3257.91 L 4135.02 3257.7 L 4134.4 3257.5 L 4133.38 3257.5 L 4132.77 3257.7 L 4132.36 3257.91 L 4131.95 3258.32 L 4131.75 3258.73 L 4131.75 3259.55 L 4131.95 3259.95 L 4132.36 3260.36 L 4132.77 3260.57 M 4136.04 3262.94 L 4135.84 3262.33 L 4135.43 3262.12 L 4135.02 3262.12 L 4134.61 3262.33 L 4134.4 3262.74 L 4134.2 3263.55 L 4134 3264.17 L 4133.59 3264.58 L 4133.18 3264.78 L 4132.56 3264.78 L 4132.15 3264.58 L 4131.95 3264.37 L 4131.75 3263.76 L 4131.75 3262.94 L 4131.95 3262.33 L 4132.15 3262.12 L 4132.56 3261.92 L 4133.18 3261.92 L 4133.59 3262.12 L 4134 3262.53 L 4134.2 3263.15 L 4134.4 3263.96 L 4134.61 3264.37 L 4135.02 3264.58 L 4135.43 3264.58 L 4135.84 3264.37 L 4136.04 3263.76 L 4136.04 3262.94" fill="none"  stroke-width="0.6" c_note="note_pre" /></g><g c_partid="part_pcbtext" c_etype="" c_origin="4184,3330" c_rotation="0" c_mirror="0" id="gge26444" locked="0" layerid="3" c_shapetype="group" display="none"><path c_fontsize="4.5" c_fontfamily="" c_text="100nF" d="M 4184 3326.28 L 4184.41 3326.07 L 4185.02 3325.46 L 4185.02 3329.75 M 4187.6 3325.46 L 4186.99 3325.66 L 4186.58 3326.28 L 4186.37 3327.3 L 4186.37 3327.91 L 4186.58 3328.94 L 4186.99 3329.55 L 4187.6 3329.75 L 4188.01 3329.75 L 4188.62 3329.55 L 4189.03 3328.94 L 4189.24 3327.91 L 4189.24 3327.3 L 4189.03 3326.28 L 4188.62 3325.66 L 4188.01 3325.46 L 4187.6 3325.46 M 4191.81 3325.46 L 4191.2 3325.66 L 4190.79 3326.28 L 4190.59 3327.3 L 4190.59 3327.91 L 4190.79 3328.94 L 4191.2 3329.55 L 4191.81 3329.75 L 4192.22 3329.75 L 4192.84 3329.55 L 4193.25 3328.94 L 4193.45 3327.91 L 4193.45 3327.3 L 4193.25 3326.28 L 4192.84 3325.66 L 4192.22 3325.46 L 4191.81 3325.46 M 4194.8 3326.89 L 4194.8 3329.75 M 4194.8 3327.71 L 4195.41 3327.1 L 4195.82 3326.89 L 4196.44 3326.89 L 4196.85 3327.1 L 4197.05 3327.71 L 4197.05 3329.75 M 4198.4 3325.46 L 4198.4 3329.75 M 4198.4 3325.46 L 4201.06 3325.46 M 4198.4 3327.5 L 4200.04 3327.5" fill="none"  stroke-width="0.6" c_note="note_name" /></g><g c_partid="part_pcbtext" c_etype="" c_origin="4190.5,3330.5" c_rotation="180" c_mirror="0" id="gge26450" locked="0" layerid="3" c_shapetype="group" ><path c_fontsize="4.5" c_fontfamily="" c_text="C9" d="M 4187.43 3334.02 L 4187.64 3334.43 L 4188.05 3334.84 L 4188.45 3335.04 L 4189.27 3335.04 L 4189.68 3334.84 L 4190.09 3334.43 L 4190.3 3334.02 L 4190.5 3333.4 L 4190.5 3332.38 L 4190.3 3331.77 L 4190.09 3331.36 L 4189.68 3330.95 L 4189.27 3330.75 L 4188.45 3330.75 L 4188.05 3330.95 L 4187.64 3331.36 L 4187.43 3331.77 M 4183.42 3333.61 L 4183.63 3333 L 4184.04 3332.59 L 4184.65 3332.38 L 4184.85 3332.38 L 4185.47 3332.59 L 4185.88 3333 L 4186.08 3333.61 L 4186.08 3333.81 L 4185.88 3334.43 L 4185.47 3334.84 L 4184.85 3335.04 L 4184.65 3335.04 L 4184.04 3334.84 L 4183.63 3334.43 L 4183.42 3333.61 L 4183.42 3332.59 L 4183.63 3331.56 L 4184.04 3330.95 L 4184.65 3330.75 L 4185.06 3330.75 L 4185.67 3330.95 L 4185.88 3331.36" fill="none"  stroke-width="0.6" c_note="note_pre" /></g><g c_partid="part_pcbtext" c_etype="" c_origin="4130.29,3348.08" c_rotation="90" c_mirror="0" id="gge26504" locked="0" layerid="3" c_shapetype="group" display="none"><path c_fontsize="4.5" c_fontfamily="" c_text="0.047uF" d="M 4125.75 3346.8501 L 4125.95 3347.4701 L 4126.57 3347.8801 L 4127.59 3348.0801 L 4128.2 3348.0801 L 4129.23 3347.8801 L 4129.84 3347.4701 L 4130.04 3346.8501 L 4130.04 3346.4401 L 4129.84 3345.8301 L 4129.23 3345.4201 L 4128.2 3345.2201 L 4127.59 3345.2201 L 4126.57 3345.4201 L 4125.95 3345.8301 L 4125.75 3346.4401 L 4125.75 3346.8501 M 4129.02 3343.6601 L 4129.23 3343.8701 L 4129.43 3343.6601 L 4129.23 3343.4601 L 4129.02 3343.6601 M 4125.75 3340.8801 L 4125.95 3341.4901 L 4126.57 3341.9001 L 4127.59 3342.1101 L 4128.2 3342.1101 L 4129.23 3341.9001 L 4129.84 3341.4901 L 4130.04 3340.8801 L 4130.04 3340.4701 L 4129.84 3339.8601 L 4129.23 3339.4501 L 4128.2 3339.2401 L 4127.59 3339.2401 L 4126.57 3339.4501 L 4125.95 3339.8601 L 4125.75 3340.4701 L 4125.75 3340.8801 M 4125.75 3335.8501 L 4128.61 3337.8901 L 4128.61 3334.8301 M 4125.75 3335.8501 L 4130.04 3335.8501 M 4125.75 3330.6101 L 4130.04 3332.6601 M 4125.75 3333.4801 L 4125.75 3330.6101 M 4127.18 3329.2601 L 4129.23 3329.2601 L 4129.84 3329.0601 L 4130.04 3328.6501 L 4130.04 3328.0301 L 4129.84 3327.6301 L 4129.23 3327.0101 M 4127.18 3327.0101 L 4130.04 3327.0101 M 4125.75 3325.6601 L 4130.04 3325.6601 M 4125.75 3325.6601 L 4125.75 3323.0001 M 4127.79 3325.6601 L 4127.79 3324.0301" fill="none"  stroke-width="0.6" c_note="note_name" /></g><g c_partid="part_pcbtext" c_etype="" c_origin="4118.5,3323" c_rotation="270" c_mirror="0" id="gge26510" locked="0" layerid="3" c_shapetype="group" ><path c_fontsize="4.5" c_fontfamily="" c_text="C12" d="M 4122.02 3326.07 L 4122.43 3325.86 L 4122.84 3325.45 L 4123.04 3325.05 L 4123.04 3324.23 L 4122.84 3323.82 L 4122.43 3323.41 L 4122.02 3323.2 L 4121.4 3323 L 4120.38 3323 L 4119.77 3323.2 L 4119.36 3323.41 L 4118.95 3323.82 L 4118.75 3324.23 L 4118.75 3325.05 L 4118.95 3325.45 L 4119.36 3325.86 L 4119.77 3326.07 M 4122.22 3327.42 L 4122.43 3327.83 L 4123.04 3328.44 L 4118.75 3328.44 M 4122.02 3330 L 4122.22 3330 L 4122.63 3330.2 L 4122.84 3330.4 L 4123.04 3330.81 L 4123.04 3331.63 L 4122.84 3332.04 L 4122.63 3332.25 L 4122.22 3332.45 L 4121.81 3332.45 L 4121.4 3332.25 L 4120.79 3331.84 L 4118.75 3329.79 L 4118.75 3332.65" fill="none"  stroke-width="0.6" c_note="note_pre" /></g><g c_partid="part_pcbtext" c_etype="" c_origin="4225.35,3286.89" c_rotation="90" c_mirror="0" id="gge26564" locked="0" layerid="3" c_shapetype="group" display="none"><path c_fontsize="4.5" c_fontfamily="" c_text="22pF" d="M 4221.8301 3286.6901 L 4221.6301 3286.6901 L 4221.2201 3286.4801 L 4221.0101 3286.2801 L 4220.8101 3285.8701 L 4220.8101 3285.0501 L 4221.0101 3284.6401 L 4221.2201 3284.4401 L 4221.6301 3284.2301 L 4222.0401 3284.2301 L 4222.4501 3284.4401 L 4223.0601 3284.8401 L 4225.1001 3286.8901 L 4225.1001 3284.0301 M 4221.8301 3282.4701 L 4221.6301 3282.4701 L 4221.2201 3282.2701 L 4221.0101 3282.0601 L 4220.8101 3281.6501 L 4220.8101 3280.8401 L 4221.0101 3280.4301 L 4221.2201 3280.2201 L 4221.6301 3280.0201 L 4222.0401 3280.0201 L 4222.4501 3280.2201 L 4223.0601 3280.6301 L 4225.1001 3282.6801 L 4225.1001 3279.8101 M 4222.2401 3278.4601 L 4226.5401 3278.4601 M 4222.8501 3278.4601 L 4222.4501 3278.0501 L 4222.2401 3277.6401 L 4222.2401 3277.0301 L 4222.4501 3276.6201 L 4222.8501 3276.2101 L 4223.4701 3276.0101 L 4223.8801 3276.0101 L 4224.4901 3276.2101 L 4224.9001 3276.6201 L 4225.1001 3277.0301 L 4225.1001 3277.6401 L 4224.9001 3278.0501 L 4224.4901 3278.4601 M 4220.8101 3274.6601 L 4225.1001 3274.6601 M 4220.8101 3274.6601 L 4220.8101 3272.0001 M 4222.8501 3274.6601 L 4222.8501 3273.0201" fill="none"  stroke-width="0.6" c_note="note_name" /></g><g c_partid="part_pcbtext" c_etype="" c_origin="4215,3272" c_rotation="270" c_mirror="0" id="gge26570" locked="0" layerid="3" c_shapetype="group" ><path c_fontsize="4.5" c_fontfamily="" c_text="C15" d="M 4218.52 3275.07 L 4218.93 3274.86 L 4219.34 3274.45 L 4219.54 3274.05 L 4219.54 3273.23 L 4219.34 3272.82 L 4218.93 3272.41 L 4218.52 3272.2 L 4217.9 3272 L 4216.88 3272 L 4216.27 3272.2 L 4215.86 3272.41 L 4215.45 3272.82 L 4215.25 3273.23 L 4215.25 3274.05 L 4215.45 3274.45 L 4215.86 3274.86 L 4216.27 3275.07 M 4218.72 3276.42 L 4218.93 3276.83 L 4219.54 3277.44 L 4215.25 3277.44 M 4219.54 3281.25 L 4219.54 3279.2 L 4217.7 3279 L 4217.9 3279.2 L 4218.11 3279.81 L 4218.11 3280.43 L 4217.9 3281.04 L 4217.5 3281.45 L 4216.88 3281.65 L 4216.47 3281.65 L 4215.86 3281.45 L 4215.45 3281.04 L 4215.25 3280.43 L 4215.25 3279.81 L 4215.45 3279.2 L 4215.65 3279 L 4216.06 3278.79" fill="none"  stroke-width="0.6" c_note="note_pre" /></g><g c_partid="part_pcbtext" c_etype="" c_origin="4052.29,3298.52" c_rotation="90" c_mirror="0" id="gge26885" locked="0" layerid="3" c_shapetype="group" display="none"><path c_fontsize="4.5" c_fontfamily="" c_text="1N4148" d="M 4048.57 3298.5199 L 4048.36 3298.1099 L 4047.75 3297.4999 L 4052.04 3297.4999 M 4047.75 3296.1499 L 4052.04 3296.1499 M 4047.75 3296.1499 L 4052.04 3293.2799 M 4047.75 3293.2799 L 4052.04 3293.2799 M 4047.75 3289.8899 L 4050.61 3291.9299 L 4050.61 3288.8699 M 4047.75 3289.8899 L 4052.04 3289.8899 M 4048.57 3287.5199 L 4048.36 3287.1099 L 4047.75 3286.4899 L 4052.04 3286.4899 M 4047.75 3283.0999 L 4050.61 3285.1399 L 4050.61 3282.0699 M 4047.75 3283.0999 L 4052.04 3283.0999 M 4047.75 3279.6999 L 4047.95 3280.3199 L 4048.36 3280.5199 L 4048.77 3280.5199 L 4049.18 3280.3199 L 4049.39 3279.9099 L 4049.59 3279.0899 L 4049.79 3278.4699 L 4050.2 3278.0699 L 4050.61 3277.8599 L 4051.23 3277.8599 L 4051.64 3278.0699 L 4051.84 3278.2699 L 4052.04 3278.8799 L 4052.04 3279.6999 L 4051.84 3280.3199 L 4051.64 3280.5199 L 4051.23 3280.7199 L 4050.61 3280.7199 L 4050.2 3280.5199 L 4049.79 3280.1099 L 4049.59 3279.4999 L 4049.39 3278.6799 L 4049.18 3278.2699 L 4048.77 3278.0699 L 4048.36 3278.0699 L 4047.95 3278.2699 L 4047.75 3278.8799 L 4047.75 3279.6999" fill="none"  stroke-width="0.6" c_note="note_name" /></g><g c_partid="part_pcbtext" c_etype="" c_origin="4031,3301" c_rotation="90" c_mirror="0" id="gge26891" locked="0" layerid="3" c_shapetype="group" ><path c_fontsize="4.5" c_fontfamily="" c_text="D2" d="M 4026.46 3301 L 4030.75 3301 M 4026.46 3301 L 4026.46 3299.57 L 4026.66 3298.95 L 4027.07 3298.55 L 4027.48 3298.34 L 4028.1 3298.14 L 4029.12 3298.14 L 4029.73 3298.34 L 4030.14 3298.55 L 4030.55 3298.95 L 4030.75 3299.57 L 4030.75 3301 M 4027.48 3296.58 L 4027.28 3296.58 L 4026.87 3296.38 L 4026.66 3296.17 L 4026.46 3295.76 L 4026.46 3294.95 L 4026.66 3294.54 L 4026.87 3294.33 L 4027.28 3294.13 L 4027.69 3294.13 L 4028.1 3294.33 L 4028.71 3294.74 L 4030.75 3296.79 L 4030.75 3293.92" fill="none"  stroke-width="0.6" c_note="note_pre" /></g><g c_partid="part_pcbtext" c_etype="" c_origin="4222.79,3343.34" c_rotation="90" c_mirror="0" id="gge27062" locked="0" layerid="3" c_shapetype="group" display="none"><path c_fontsize="4.5" c_fontfamily="" c_text="10k" d="M 4219.07 3343.3398 L 4218.86 3342.9298 L 4218.25 3342.3198 L 4222.54 3342.3198 M 4218.25 3339.7398 L 4218.45 3340.3498 L 4219.07 3340.7598 L 4220.09 3340.9698 L 4220.7 3340.9698 L 4221.73 3340.7598 L 4222.34 3340.3498 L 4222.54 3339.7398 L 4222.54 3339.3298 L 4222.34 3338.7198 L 4221.73 3338.3098 L 4220.7 3338.0998 L 4220.09 3338.0998 L 4219.07 3338.3098 L 4218.45 3338.7198 L 4218.25 3339.3298 L 4218.25 3339.7398 M 4218.25 3336.7498 L 4222.54 3336.7498 M 4219.68 3334.7098 L 4221.73 3336.7498 M 4220.91 3335.9398 L 4222.54 3334.4998" fill="none"  stroke-width="0.6" c_note="note_name" /></g><g c_partid="part_pcbtext" c_etype="" c_origin="4211,3334.5" c_rotation="270" c_mirror="0" id="gge27068" locked="0" layerid="3" c_shapetype="group" ><path c_fontsize="4.5" c_fontfamily="" c_text="R1" d="M 4215.54 3334.5 L 4211.25 3334.5 M 4215.54 3334.5 L 4215.54 3336.34 L 4215.34 3336.95 L 4215.13 3337.16 L 4214.72 3337.36 L 4214.31 3337.36 L 4213.9 3337.16 L 4213.7 3336.95 L 4213.5 3336.34 L 4213.5 3334.5 M 4213.5 3335.93 L 4211.25 3337.36 M 4214.72 3338.71 L 4214.93 3339.12 L 4215.54 3339.74 L 4211.25 3339.74" fill="none"  stroke-width="0.6" c_note="note_pre" /></g><g c_partid="part_pcbtext" c_etype="" c_origin="4125.5,3289.5" c_rotation="90" c_mirror="0" id="gge27536" locked="0" layerid="3" c_shapetype="group" display="none"><path c_fontsize="4.5" c_fontfamily="" c_text="ATMEGA328P-PU" d="M 4120.96 3287.86 L 4125.25 3289.5 M 4120.96 3287.86 L 4125.25 3286.23 M 4123.82 3288.89 L 4123.82 3286.84 M 4120.96 3283.45 L 4125.25 3283.45 M 4120.96 3284.88 L 4120.96 3282.01 M 4120.96 3280.66 L 4125.25 3280.66 M 4120.96 3280.66 L 4125.25 3279.03 M 4120.96 3277.39 L 4125.25 3279.03 M 4120.96 3277.39 L 4125.25 3277.39 M 4120.96 3276.04 L 4125.25 3276.04 M 4120.96 3276.04 L 4120.96 3273.38 M 4123 3276.04 L 4123 3274.4 M 4125.25 3276.04 L 4125.25 3273.38 M 4121.98 3268.96 L 4121.57 3269.17 L 4121.16 3269.58 L 4120.96 3269.99 L 4120.96 3270.8 L 4121.16 3271.21 L 4121.57 3271.62 L 4121.98 3271.83 L 4122.6 3272.03 L 4123.62 3272.03 L 4124.23 3271.83 L 4124.64 3271.62 L 4125.05 3271.21 L 4125.25 3270.8 L 4125.25 3269.99 L 4125.05 3269.58 L 4124.64 3269.17 L 4124.23 3268.96 L 4123.62 3268.96 M 4123.62 3269.99 L 4123.62 3268.96 M 4120.96 3265.98 L 4125.25 3267.61 M 4120.96 3265.98 L 4125.25 3264.34 M 4123.82 3267 L 4123.82 3264.95 M 4120.96 3262.58 L 4120.96 3260.33 L 4122.6 3261.56 L 4122.6 3260.95 L 4122.8 3260.54 L 4123 3260.33 L 4123.62 3260.13 L 4124.03 3260.13 L 4124.64 3260.33 L 4125.05 3260.74 L 4125.25 3261.35 L 4125.25 3261.97 L 4125.05 3262.58 L 4124.85 3262.79 L 4124.44 3262.99 M 4121.98 3258.57 L 4121.78 3258.57 L 4121.37 3258.37 L 4121.16 3258.16 L 4120.96 3257.75 L 4120.96 3256.94 L 4121.16 3256.53 L 4121.37 3256.32 L 4121.78 3256.12 L 4122.19 3256.12 L 4122.6 3256.32 L 4123.21 3256.73 L 4125.25 3258.78 L 4125.25 3255.91 M 4120.96 3253.54 L 4121.16 3254.15 L 4121.57 3254.36 L 4121.98 3254.36 L 4122.39 3254.15 L 4122.6 3253.75 L 4122.8 3252.93 L 4123 3252.31 L 4123.41 3251.9 L 4123.82 3251.7 L 4124.44 3251.7 L 4124.85 3251.9 L 4125.05 3252.11 L 4125.25 3252.72 L 4125.25 3253.54 L 4125.05 3254.15 L 4124.85 3254.36 L 4124.44 3254.56 L 4123.82 3254.56 L 4123.41 3254.36 L 4123 3253.95 L 4122.8 3253.34 L 4122.6 3252.52 L 4122.39 3252.11 L 4121.98 3251.9 L 4121.57 3251.9 L 4121.16 3252.11 L 4120.96 3252.72 L 4120.96 3253.54 M 4120.96 3250.35 L 4125.25 3250.35 M 4120.96 3250.35 L 4120.96 3248.51 L 4121.16 3247.9 L 4121.37 3247.69 L 4121.78 3247.49 L 4122.39 3247.49 L 4122.8 3247.69 L 4123 3247.9 L 4123.21 3248.51 L 4123.21 3250.35 M 4123.41 3246.14 L 4123.41 3242.45 M 4120.96 3241.1 L 4125.25 3241.1 M 4120.96 3241.1 L 4120.96 3239.26 L 4121.16 3238.65 L 4121.37 3238.45 L 4121.78 3238.24 L 4122.39 3238.24 L 4122.8 3238.45 L 4123 3238.65 L 4123.21 3239.26 L 4123.21 3241.1 M 4120.96 3236.89 L 4124.03 3236.89 L 4124.64 3236.69 L 4125.05 3236.28 L 4125.25 3235.66 L 4125.25 3235.25 L 4125.05 3234.64 L 4124.64 3234.23 L 4124.03 3234.03 L 4120.96 3234.03" fill="none"  stroke-width="0.6" c_note="note_name" /></g><g c_partid="part_pcbtext" c_etype="" c_origin="4148.5,3367" c_rotation="0" c_mirror="0" id="gge27542" locked="0" layerid="3" c_shapetype="group" ><path c_fontsize="4.5" c_fontfamily="" c_text="U1" d="M 4148.5 3362.46 L 4148.5 3365.53 L 4148.7 3366.14 L 4149.11 3366.55 L 4149.73 3366.75 L 4150.14 3366.75 L 4150.75 3366.55 L 4151.16 3366.14 L 4151.36 3365.53 L 4151.36 3362.46 M 4152.71 3363.28 L 4153.12 3363.07 L 4153.74 3362.46 L 4153.74 3366.75" fill="none"  stroke-width="0.6" c_note="note_pre" /></g><g c_partid="part_pcbtext" c_etype="" c_origin="4059.248,3296" c_rotation="90" c_mirror="0" id="gge28082" locked="0" layerid="3" c_shapetype="group" display="none"><path c_fontsize="4.5" c_fontfamily="" c_text="MAX232N" d="M 4054.708 3296 L 4058.998 3296 M 4054.708 3296 L 4058.998 3294.36 M 4054.708 3292.73 L 4058.998 3294.36 M 4054.708 3292.73 L 4058.998 3292.73 M 4054.708 3289.74 L 4058.998 3291.38 M 4054.708 3289.74 L 4058.998 3288.1 M 4057.568 3290.76 L 4057.568 3288.72 M 4054.708 3286.75 L 4058.998 3283.89 M 4054.708 3283.89 L 4058.998 3286.75 M 4055.728 3282.34 L 4055.528 3282.34 L 4055.118 3282.13 L 4054.908 3281.93 L 4054.708 3281.52 L 4054.708 3280.7 L 4054.908 3280.29 L 4055.118 3280.09 L 4055.528 3279.88 L 4055.938 3279.88 L 4056.348 3280.09 L 4056.958 3280.5 L 4058.998 3282.54 L 4058.998 3279.68 M 4054.708 3277.92 L 4054.708 3275.67 L 4056.348 3276.9 L 4056.348 3276.28 L 4056.548 3275.87 L 4056.748 3275.67 L 4057.368 3275.46 L 4057.778 3275.46 L 4058.388 3275.67 L 4058.798 3276.08 L 4058.998 3276.69 L 4058.998 3277.3 L 4058.798 3277.92 L 4058.598 3278.12 L 4058.188 3278.33 M 4055.728 3273.91 L 4055.528 3273.91 L 4055.118 3273.7 L 4054.908 3273.5 L 4054.708 3273.09 L 4054.708 3272.27 L 4054.908 3271.86 L 4055.118 3271.66 L 4055.528 3271.45 L 4055.938 3271.45 L 4056.348 3271.66 L 4056.958 3272.07 L 4058.998 3274.11 L 4058.998 3271.25 M 4054.708 3269.9 L 4058.998 3269.9 M 4054.708 3269.9 L 4058.998 3267.04 M 4054.708 3267.04 L 4058.998 3267.04" fill="none"  stroke-width="0.6" c_note="note_name" /></g><g c_partid="part_pcbtext" c_etype="" c_origin="4082.5,3340.5" c_rotation="0" c_mirror="0" id="gge28088" locked="0" layerid="3" c_shapetype="group" ><path c_fontsize="4.5" c_fontfamily="" c_text="U2" d="M 4082.5 3335.96 L 4082.5 3339.03 L 4082.7 3339.64 L 4083.11 3340.05 L 4083.73 3340.25 L 4084.14 3340.25 L 4084.75 3340.05 L 4085.16 3339.64 L 4085.36 3339.03 L 4085.36 3335.96 M 4086.92 3336.98 L 4086.92 3336.78 L 4087.12 3336.37 L 4087.33 3336.16 L 4087.74 3335.96 L 4088.55 3335.96 L 4088.96 3336.16 L 4089.17 3336.37 L 4089.37 3336.78 L 4089.37 3337.19 L 4089.17 3337.6 L 4088.76 3338.21 L 4086.71 3340.25 L 4089.58 3340.25" fill="none"  stroke-width="0.6" c_note="note_pre" /></g><g c_partid="part_pcbtext" c_etype="" c_origin="4229.81,3262.77" c_rotation="90" c_mirror="0" id="gge28472" locked="0" layerid="3" c_shapetype="group" display="none"><path c_fontsize="4.5" c_fontfamily="" c_text="L7805ABV" d="M 4225.2696 3262.7695 L 4229.5596 3262.7695 M 4229.5596 3262.7695 L 4229.5596 3260.3195 M 4225.2696 3256.0995 L 4229.5596 3258.1495 M 4225.2696 3258.9695 L 4225.2696 3256.0995 M 4225.2696 3253.7295 L 4225.4696 3254.3395 L 4225.8796 3254.5495 L 4226.2896 3254.5495 L 4226.6996 3254.3395 L 4226.9096 3253.9295 L 4227.1096 3253.1195 L 4227.3096 3252.4995 L 4227.7196 3252.0895 L 4228.1296 3251.8895 L 4228.7496 3251.8895 L 4229.1596 3252.0895 L 4229.3596 3252.2995 L 4229.5596 3252.9095 L 4229.5596 3253.7295 L 4229.3596 3254.3395 L 4229.1596 3254.5495 L 4228.7496 3254.7495 L 4228.1296 3254.7495 L 4227.7196 3254.5495 L 4227.3096 3254.1395 L 4227.1096 3253.5195 L 4226.9096 3252.7095 L 4226.6996 3252.2995 L 4226.2896 3252.0895 L 4225.8796 3252.0895 L 4225.4696 3252.2995 L 4225.2696 3252.9095 L 4225.2696 3253.7295 M 4225.2696 3249.3095 L 4225.4696 3249.9195 L 4226.0896 3250.3295 L 4227.1096 3250.5395 L 4227.7196 3250.5395 L 4228.7496 3250.3295 L 4229.3596 3249.9195 L 4229.5596 3249.3095 L 4229.5596 3248.8995 L 4229.3596 3248.2895 L 4228.7496 3247.8795 L 4227.7196 3247.6695 L 4227.1096 3247.6695 L 4226.0896 3247.8795 L 4225.4696 3248.2895 L 4225.2696 3248.8995 L 4225.2696 3249.3095 M 4225.2696 3243.8695 L 4225.2696 3245.9195 L 4227.1096 3246.1195 L 4226.9096 3245.9195 L 4226.6996 3245.2995 L 4226.6996 3244.6895 L 4226.9096 3244.0695 L 4227.3096 3243.6695 L 4227.9296 3243.4595 L 4228.3396 3243.4595 L 4228.9496 3243.6695 L 4229.3596 3244.0695 L 4229.5596 3244.6895 L 4229.5596 3245.2995 L 4229.3596 3245.9195 L 4229.1596 3246.1195 L 4228.7496 3246.3195 M 4225.2696 3240.4695 L 4229.5596 3242.1095 M 4225.2696 3240.4695 L 4229.5596 3238.8395 M 4228.1296 3241.4995 L 4228.1296 3239.4495 M 4225.2696 3237.4895 L 4229.5596 3237.4895 M 4225.2696 3237.4895 L 4225.2696 3235.6495 L 4225.4696 3235.0295 L 4225.6796 3234.8295 L 4226.0896 3234.6195 L 4226.4996 3234.6195 L 4226.9096 3234.8295 L 4227.1096 3235.0295 L 4227.3096 3235.6495 M 4227.3096 3237.4895 L 4227.3096 3235.6495 L 4227.5196 3235.0295 L 4227.7196 3234.8295 L 4228.1296 3234.6195 L 4228.7496 3234.6195 L 4229.1596 3234.8295 L 4229.3596 3235.0295 L 4229.5596 3235.6495 L 4229.5596 3237.4895 M 4225.2696 3233.2695 L 4229.5596 3231.6395 M 4225.2696 3229.9995 L 4229.5596 3231.6395" fill="none"  stroke-width="0.6" c_note="note_name" /></g><g c_partid="part_pcbtext" c_etype="" c_origin="4224,3229.5" c_rotation="180" c_mirror="0" id="gge28478" locked="0" layerid="3" c_shapetype="group" ><path c_fontsize="4.5" c_fontfamily="" c_text="U3" d="M 4223.9995 3234.0405 L 4223.9995 3230.9705 L 4223.7995 3230.3605 L 4223.3895 3229.9505 L 4222.7695 3229.7505 L 4222.3595 3229.7505 L 4221.7495 3229.9505 L 4221.3395 3230.3605 L 4221.1395 3230.9705 L 4221.1395 3234.0405 M 4219.3795 3234.0405 L 4217.1295 3234.0405 L 4218.3495 3232.4005 L 4217.7395 3232.4005 L 4217.3295 3232.2005 L 4217.1295 3232.0005 L 4216.9195 3231.3805 L 4216.9195 3230.9705 L 4217.1295 3230.3605 L 4217.5395 3229.9505 L 4218.1495 3229.7505 L 4218.7595 3229.7505 L 4219.3795 3229.9505 L 4219.5795 3230.1505 L 4219.7895 3230.5605" fill="none"  stroke-width="0.6" c_note="note_pre" /></g><g c_partid="part_pcbtext" c_etype="" c_origin="4174.5,3276.66" c_rotation="90" c_mirror="0" id="gge28643" locked="0" layerid="3" c_shapetype="group" display="none"><path c_fontsize="4.5" c_fontfamily="" c_text="16MHZ" d="M 4170.78 3276.66 L 4170.57 3276.25 L 4169.96 3275.64 L 4174.25 3275.64 M 4170.57 3271.83 L 4170.16 3272.04 L 4169.96 3272.65 L 4169.96 3273.06 L 4170.16 3273.67 L 4170.78 3274.08 L 4171.8 3274.29 L 4172.82 3274.29 L 4173.64 3274.08 L 4174.05 3273.67 L 4174.25 3273.06 L 4174.25 3272.86 L 4174.05 3272.24 L 4173.64 3271.83 L 4173.03 3271.63 L 4172.82 3271.63 L 4172.21 3271.83 L 4171.8 3272.24 L 4171.6 3272.86 L 4171.6 3273.06 L 4171.8 3273.67 L 4172.21 3274.08 L 4172.82 3274.29 M 4169.96 3270.28 L 4174.25 3270.28 M 4169.96 3270.28 L 4174.25 3268.64 M 4169.96 3267.01 L 4174.25 3268.64 M 4169.96 3267.01 L 4174.25 3267.01 M 4169.96 3265.66 L 4174.25 3265.66 M 4169.96 3262.79 L 4174.25 3262.79 M 4172 3265.66 L 4172 3262.79 M 4169.96 3258.58 L 4174.25 3261.44 M 4169.96 3261.44 L 4169.96 3258.58 M 4174.25 3261.44 L 4174.25 3258.58" fill="none"  stroke-width="0.6" c_note="note_name" /></g><g c_partid="part_pcbtext" c_etype="" c_origin="4181.5,3276.66" c_rotation="90" c_mirror="0" id="gge28649" locked="0" layerid="3" c_shapetype="group" ><path c_fontsize="4.5" c_fontfamily="" c_text="X1" d="M 4176.96 3276.66 L 4181.25 3273.8 M 4176.96 3273.8 L 4181.25 3276.66 M 4177.78 3272.45 L 4177.57 3272.04 L 4176.96 3271.42 L 4181.25 3271.42" fill="none"  stroke-width="0.6" c_note="note_pre" /></g><g c_partid="part_pcbtext" c_etype="" c_origin="4053.5,3184" c_rotation="0" c_mirror="0" id="gge29873" locked="0" layerid="3" c_shapetype="group" display="none"><path c_fontsize="4.5" c_fontfamily="" c_text="Mitsu Diag" d="M 4053.5 3179.46 L 4053.5 3183.75 M 4053.5 3179.46 L 4055.14 3183.75 M 4056.77 3179.46 L 4055.14 3183.75 M 4056.77 3179.46 L 4056.77 3183.75 M 4058.12 3179.46 L 4058.33 3179.66 L 4058.53 3179.46 L 4058.33 3179.25 L 4058.12 3179.46 M 4058.33 3180.89 L 4058.33 3183.75 M 4060.5 3179.46 L 4060.5 3182.94 L 4060.7 3183.55 L 4061.11 3183.75 L 4061.52 3183.75 M 4059.88 3180.89 L 4061.31 3180.89 M 4065.12 3181.5 L 4064.91 3181.1 L 4064.3 3180.89 L 4063.69 3180.89 L 4063.07 3181.1 L 4062.87 3181.5 L 4063.07 3181.91 L 4063.48 3182.12 L 4064.5 3182.32 L 4064.91 3182.53 L 4065.12 3182.94 L 4065.12 3183.14 L 4064.91 3183.55 L 4064.3 3183.75 L 4063.69 3183.75 L 4063.07 3183.55 L 4062.87 3183.14 M 4066.47 3180.89 L 4066.47 3182.94 L 4066.67 3183.55 L 4067.08 3183.75 L 4067.7 3183.75 L 4068.1 3183.55 L 4068.72 3182.94 M 4068.72 3180.89 L 4068.72 3183.75 M 4073.22 3179.46 L 4073.22 3183.75 M 4073.22 3179.46 L 4074.65 3179.46 L 4075.26 3179.66 L 4075.67 3180.07 L 4075.88 3180.48 L 4076.08 3181.1 L 4076.08 3182.12 L 4075.88 3182.73 L 4075.67 3183.14 L 4075.26 3183.55 L 4074.65 3183.75 L 4073.22 3183.75 M 4077.43 3179.46 L 4077.64 3179.66 L 4077.84 3179.46 L 4077.64 3179.25 L 4077.43 3179.46 M 4077.64 3180.89 L 4077.64 3183.75 M 4081.65 3180.89 L 4081.65 3183.75 M 4081.65 3181.5 L 4081.24 3181.1 L 4080.83 3180.89 L 4080.21 3180.89 L 4079.8 3181.1 L 4079.4 3181.5 L 4079.19 3182.12 L 4079.19 3182.53 L 4079.4 3183.14 L 4079.8 3183.55 L 4080.21 3183.75 L 4080.83 3183.75 L 4081.24 3183.55 L 4081.65 3183.14 M 4085.45 3180.89 L 4085.45 3184.16 L 4085.25 3184.78 L 4085.04 3184.98 L 4084.63 3185.19 L 4084.02 3185.19 L 4083.61 3184.98 M 4085.45 3181.5 L 4085.04 3181.1 L 4084.63 3180.89 L 4084.02 3180.89 L 4083.61 3181.1 L 4083.2 3181.5 L 4083 3182.12 L 4083 3182.53 L 4083.2 3183.14 L 4083.61 3183.55 L 4084.02 3183.75 L 4084.63 3183.75 L 4085.04 3183.55 L 4085.45 3183.14" fill="none"  stroke-width="0.6" c_note="note_name" /></g><g c_partid="part_pcbtext" c_etype="" c_origin="4067,3198.5" c_rotation="0" c_mirror="0" id="gge29879" locked="0" layerid="3" c_shapetype="group" ><path c_fontsize="4.5" c_fontfamily="" c_text="CAR" d="M 4070.07 3194.98 L 4069.86 3194.57 L 4069.45 3194.16 L 4069.05 3193.96 L 4068.23 3193.96 L 4067.82 3194.16 L 4067.41 3194.57 L 4067.2 3194.98 L 4067 3195.6 L 4067 3196.62 L 4067.2 3197.23 L 4067.41 3197.64 L 4067.82 3198.05 L 4068.23 3198.25 L 4069.05 3198.25 L 4069.45 3198.05 L 4069.86 3197.64 L 4070.07 3197.23 M 4073.05 3193.96 L 4071.42 3198.25 M 4073.05 3193.96 L 4074.69 3198.25 M 4072.03 3196.82 L 4074.08 3196.82 M 4076.04 3193.96 L 4076.04 3198.25 M 4076.04 3193.96 L 4077.88 3193.96 L 4078.5 3194.16 L 4078.7 3194.37 L 4078.9 3194.78 L 4078.9 3195.19 L 4078.7 3195.6 L 4078.5 3195.8 L 4077.88 3196 L 4076.04 3196 M 4077.47 3196 L 4078.9 3198.25" fill="none"  stroke-width="0.6" c_note="note_pre" /></g><g c_partid="part_pcbtext" c_etype="" c_origin="4070.91,3214.29" c_rotation="0" c_mirror="0" id="gge26954" locked="0" layerid="3" c_shapetype="group" display="none"><path c_fontsize="4.5" c_fontfamily="" c_text="LCD I2C Connector" d="M 4070.91 3209.75 L 4070.91 3214.04 M 4070.91 3214.04 L 4073.36 3214.04 M 4077.78 3210.77 L 4077.58 3210.36 L 4077.17 3209.95 L 4076.76 3209.75 L 4075.94 3209.75 L 4075.53 3209.95 L 4075.12 3210.36 L 4074.92 3210.77 L 4074.71 3211.39 L 4074.71 3212.41 L 4074.92 3213.02 L 4075.12 3213.43 L 4075.53 3213.84 L 4075.94 3214.04 L 4076.76 3214.04 L 4077.17 3213.84 L 4077.58 3213.43 L 4077.78 3213.02 M 4079.13 3209.75 L 4079.13 3214.04 M 4079.13 3209.75 L 4080.56 3209.75 L 4081.18 3209.95 L 4081.59 3210.36 L 4081.79 3210.77 L 4082 3211.39 L 4082 3212.41 L 4081.79 3213.02 L 4081.59 3213.43 L 4081.18 3213.84 L 4080.56 3214.04 L 4079.13 3214.04 M 4086.5 3209.75 L 4086.5 3214.04 M 4088.05 3210.77 L 4088.05 3210.57 L 4088.26 3210.16 L 4088.46 3209.95 L 4088.87 3209.75 L 4089.69 3209.75 L 4090.1 3209.95 L 4090.3 3210.16 L 4090.51 3210.57 L 4090.51 3210.98 L 4090.3 3211.39 L 4089.89 3212 L 4087.85 3214.04 L 4090.71 3214.04 M 4095.13 3210.77 L 4094.92 3210.36 L 4094.51 3209.95 L 4094.11 3209.75 L 4093.29 3209.75 L 4092.88 3209.95 L 4092.47 3210.36 L 4092.26 3210.77 L 4092.06 3211.39 L 4092.06 3212.41 L 4092.26 3213.02 L 4092.47 3213.43 L 4092.88 3213.84 L 4093.29 3214.04 L 4094.11 3214.04 L 4094.51 3213.84 L 4094.92 3213.43 L 4095.13 3213.02 M 4102.7 3210.77 L 4102.49 3210.36 L 4102.08 3209.95 L 4101.67 3209.75 L 4100.86 3209.75 L 4100.45 3209.95 L 4100.04 3210.36 L 4099.83 3210.77 L 4099.63 3211.39 L 4099.63 3212.41 L 4099.83 3213.02 L 4100.04 3213.43 L 4100.45 3213.84 L 4100.86 3214.04 L 4101.67 3214.04 L 4102.08 3213.84 L 4102.49 3213.43 L 4102.7 3213.02 M 4105.07 3211.18 L 4104.66 3211.39 L 4104.25 3211.79 L 4104.05 3212.41 L 4104.05 3212.82 L 4104.25 3213.43 L 4104.66 3213.84 L 4105.07 3214.04 L 4105.68 3214.04 L 4106.09 3213.84 L 4106.5 3213.43 L 4106.71 3212.82 L 4106.71 3212.41 L 4106.5 3211.79 L 4106.09 3211.39 L 4105.68 3211.18 L 4105.07 3211.18 M 4108.06 3211.18 L 4108.06 3214.04 M 4108.06 3212 L 4108.67 3211.39 L 4109.08 3211.18 L 4109.69 3211.18 L 4110.1 3211.39 L 4110.31 3212 L 4110.31 3214.04 M 4111.66 3211.18 L 4111.66 3214.04 M 4111.66 3212 L 4112.27 3211.39 L 4112.68 3211.18 L 4113.29 3211.18 L 4113.7 3211.39 L 4113.91 3212 L 4113.91 3214.04 M 4115.26 3212.41 L 4117.71 3212.41 L 4117.71 3212 L 4117.51 3211.59 L 4117.3 3211.39 L 4116.89 3211.18 L 4116.28 3211.18 L 4115.87 3211.39 L 4115.46 3211.79 L 4115.26 3212.41 L 4115.26 3212.82 L 4115.46 3213.43 L 4115.87 3213.84 L 4116.28 3214.04 L 4116.89 3214.04 L 4117.3 3213.84 L 4117.71 3213.43 M 4121.51 3211.79 L 4121.11 3211.39 L 4120.7 3211.18 L 4120.08 3211.18 L 4119.67 3211.39 L 4119.26 3211.79 L 4119.06 3212.41 L 4119.06 3212.82 L 4119.26 3213.43 L 4119.67 3213.84 L 4120.08 3214.04 L 4120.7 3214.04 L 4121.11 3213.84 L 4121.51 3213.43 M 4123.48 3209.75 L 4123.48 3213.23 L 4123.68 3213.84 L 4124.09 3214.04 L 4124.5 3214.04 M 4122.86 3211.18 L 4124.3 3211.18 M 4126.87 3211.18 L 4126.46 3211.39 L 4126.06 3211.79 L 4125.85 3212.41 L 4125.85 3212.82 L 4126.06 3213.43 L 4126.46 3213.84 L 4126.87 3214.04 L 4127.49 3214.04 L 4127.9 3213.84 L 4128.31 3213.43 L 4128.51 3212.82 L 4128.51 3212.41 L 4128.31 3211.79 L 4127.9 3211.39 L 4127.49 3211.18 L 4126.87 3211.18 M 4129.86 3211.18 L 4129.86 3214.04 M 4129.86 3212.41 L 4130.06 3211.79 L 4130.47 3211.39 L 4130.88 3211.18 L 4131.5 3211.18" fill="none"  stroke-width="0.6" c_note="note_name" /></g><g c_partid="part_pcbtext" c_etype="" c_origin="4106,3208.5" c_rotation="0" c_mirror="0" id="gge26960" locked="0" layerid="3" c_shapetype="group" ><path c_fontsize="4.5" c_fontfamily="" c_text="LCD" d="M 4106 3203.96 L 4106 3208.25 M 4106 3208.25 L 4108.45 3208.25 M 4112.87 3204.98 L 4112.67 3204.57 L 4112.26 3204.16 L 4111.85 3203.96 L 4111.03 3203.96 L 4110.62 3204.16 L 4110.21 3204.57 L 4110.01 3204.98 L 4109.8 3205.6 L 4109.8 3206.62 L 4110.01 3207.23 L 4110.21 3207.64 L 4110.62 3208.05 L 4111.03 3208.25 L 4111.85 3208.25 L 4112.26 3208.05 L 4112.67 3207.64 L 4112.87 3207.23 M 4114.22 3203.96 L 4114.22 3208.25 M 4114.22 3203.96 L 4115.65 3203.96 L 4116.27 3204.16 L 4116.68 3204.57 L 4116.88 3204.98 L 4117.09 3205.6 L 4117.09 3206.62 L 4116.88 3207.23 L 4116.68 3207.64 L 4116.27 3208.05 L 4115.65 3208.25 L 4114.22 3208.25" fill="none"  stroke-width="0.6" c_note="note_pre" /></g><g c_partid="part_pcbtext" c_etype="" c_origin="4168.5,3183.5" c_rotation="0" c_mirror="0" id="gge28913" locked="0" layerid="3" c_shapetype="group" display="none"><path c_fontsize="4.5" c_fontfamily="" c_text="PWR" d="M 4168.5 3178.96 L 4168.5 3183.25 M 4168.5 3178.96 L 4170.34 3178.96 L 4170.95 3179.16 L 4171.16 3179.37 L 4171.36 3179.78 L 4171.36 3180.39 L 4171.16 3180.8 L 4170.95 3181 L 4170.34 3181.21 L 4168.5 3181.21 M 4172.71 3178.96 L 4173.74 3183.25 M 4174.76 3178.96 L 4173.74 3183.25 M 4174.76 3178.96 L 4175.78 3183.25 M 4176.8 3178.96 L 4175.78 3183.25 M 4178.15 3178.96 L 4178.15 3183.25 M 4178.15 3178.96 L 4180 3178.96 L 4180.61 3179.16 L 4180.81 3179.37 L 4181.02 3179.78 L 4181.02 3180.19 L 4180.81 3180.6 L 4180.61 3180.8 L 4180 3181 L 4178.15 3181 M 4179.59 3181 L 4181.02 3183.25" fill="none"  stroke-width="0.6" c_note="note_name" /></g><g c_partid="part_pcbtext" c_etype="" c_origin="4183.5,3199" c_rotation="0" c_mirror="0" id="gge28919" locked="0" layerid="3" c_shapetype="group" ><path c_fontsize="4.5" c_fontfamily="" c_text="PWR" d="M 4183.5 3194.46 L 4183.5 3198.75 M 4183.5 3194.46 L 4185.34 3194.46 L 4185.95 3194.66 L 4186.16 3194.87 L 4186.36 3195.28 L 4186.36 3195.89 L 4186.16 3196.3 L 4185.95 3196.5 L 4185.34 3196.71 L 4183.5 3196.71 M 4187.71 3194.46 L 4188.74 3198.75 M 4189.76 3194.46 L 4188.74 3198.75 M 4189.76 3194.46 L 4190.78 3198.75 M 4191.8 3194.46 L 4190.78 3198.75 M 4193.15 3194.46 L 4193.15 3198.75 M 4193.15 3194.46 L 4195 3194.46 L 4195.61 3194.66 L 4195.81 3194.87 L 4196.02 3195.28 L 4196.02 3195.69 L 4195.81 3196.1 L 4195.61 3196.3 L 4195 3196.5 L 4193.15 3196.5 M 4194.59 3196.5 L 4196.02 3198.75" fill="none"  stroke-width="0.6" c_note="note_pre" /></g><g c_partid="part_pcbtext" c_etype="" c_origin="4127.29,3302.13" c_rotation="90" c_mirror="0" id="gge32553" locked="0" layerid="3" c_shapetype="group" display="none"><path c_fontsize="4.5" c_fontfamily="" c_text="1uF" d="M 4123.57 3302.1299 L 4123.36 3301.7199 L 4122.75 3301.1099 L 4127.04 3301.1099 M 4124.18 3299.7599 L 4126.23 3299.7599 L 4126.84 3299.5499 L 4127.04 3299.1399 L 4127.04 3298.5299 L 4126.84 3298.1199 L 4126.23 3297.5099 M 4124.18 3297.5099 L 4127.04 3297.5099 M 4122.75 3296.1599 L 4127.04 3296.1599 M 4122.75 3296.1599 L 4122.75 3293.4999 M 4124.79 3296.1599 L 4124.79 3294.5199" fill="none"  stroke-width="0.6" c_note="note_name" /></g><g c_partid="part_pcbtext" c_etype="" c_origin="4115.5,3293.5" c_rotation="270" c_mirror="0" id="gge32559" locked="0" layerid="3" c_shapetype="group" ><path c_fontsize="4.5" c_fontfamily="" c_text="C10" d="M 4119.02 3296.57 L 4119.43 3296.36 L 4119.84 3295.95 L 4120.04 3295.55 L 4120.04 3294.73 L 4119.84 3294.32 L 4119.43 3293.91 L 4119.02 3293.7 L 4118.4 3293.5 L 4117.38 3293.5 L 4116.77 3293.7 L 4116.36 3293.91 L 4115.95 3294.32 L 4115.75 3294.73 L 4115.75 3295.55 L 4115.95 3295.95 L 4116.36 3296.36 L 4116.77 3296.57 M 4119.22 3297.92 L 4119.43 3298.33 L 4120.04 3298.94 L 4115.75 3298.94 M 4120.04 3301.52 L 4119.84 3300.9 L 4119.22 3300.5 L 4118.2 3300.29 L 4117.59 3300.29 L 4116.56 3300.5 L 4115.95 3300.9 L 4115.75 3301.52 L 4115.75 3301.93 L 4115.95 3302.54 L 4116.56 3302.95 L 4117.59 3303.15 L 4118.2 3303.15 L 4119.22 3302.95 L 4119.84 3302.54 L 4120.04 3301.93 L 4120.04 3301.52" fill="none"  stroke-width="0.6" c_note="note_pre" /></g><g c_partid="part_pcbtext" c_etype="" c_origin="4128.79,3258.13" c_rotation="90" c_mirror="0" id="gge32613" locked="0" layerid="3" c_shapetype="group" display="none"><path c_fontsize="4.5" c_fontfamily="" c_text="1uF" d="M 4125.07 3258.1299 L 4124.86 3257.7199 L 4124.25 3257.1099 L 4128.54 3257.1099 M 4125.68 3255.7599 L 4127.73 3255.7599 L 4128.34 3255.5499 L 4128.54 3255.1399 L 4128.54 3254.5299 L 4128.34 3254.1199 L 4127.73 3253.5099 M 4125.68 3253.5099 L 4128.54 3253.5099 M 4124.25 3252.1599 L 4128.54 3252.1599 M 4124.25 3252.1599 L 4124.25 3249.4999 M 4126.29 3252.1599 L 4126.29 3250.5199" fill="none"  stroke-width="0.6" c_note="note_name" /></g><g c_partid="part_pcbtext" c_etype="" c_origin="4117,3249.5" c_rotation="270" c_mirror="0" id="gge32619" locked="0" layerid="3" c_shapetype="group" ><path c_fontsize="4.5" c_fontfamily="" c_text="C11" d="M 4120.52 3252.57 L 4120.93 3252.36 L 4121.34 3251.95 L 4121.54 3251.55 L 4121.54 3250.73 L 4121.34 3250.32 L 4120.93 3249.91 L 4120.52 3249.7 L 4119.9 3249.5 L 4118.88 3249.5 L 4118.27 3249.7 L 4117.86 3249.91 L 4117.45 3250.32 L 4117.25 3250.73 L 4117.25 3251.55 L 4117.45 3251.95 L 4117.86 3252.36 L 4118.27 3252.57 M 4120.72 3253.92 L 4120.93 3254.33 L 4121.54 3254.94 L 4117.25 3254.94 M 4120.72 3256.29 L 4120.93 3256.7 L 4121.54 3257.31 L 4117.25 3257.31" fill="none"  stroke-width="0.6" c_note="note_pre" /></g><g c_partid="part_pcbtext" c_etype="" c_origin="4094,3330.5" c_rotation="0" c_mirror="0" id="gge32673" locked="0" layerid="3" c_shapetype="group" display="none"><path c_fontsize="4.5" c_fontfamily="" c_text="1uF" d="M 4094 3326.78 L 4094.41 3326.57 L 4095.02 3325.96 L 4095.02 3330.25 M 4096.37 3327.39 L 4096.37 3329.44 L 4096.58 3330.05 L 4096.99 3330.25 L 4097.6 3330.25 L 4098.01 3330.05 L 4098.62 3329.44 M 4098.62 3327.39 L 4098.62 3330.25 M 4099.97 3325.96 L 4099.97 3330.25 M 4099.97 3325.96 L 4102.63 3325.96 M 4099.97 3328 L 4101.61 3328" fill="none"  stroke-width="0.6" c_note="note_name" /></g><g c_partid="part_pcbtext" c_etype="" c_origin="4089.5,3354.5" c_rotation="0" c_mirror="0" id="gge32679" locked="0" layerid="3" c_shapetype="group" ><path c_fontsize="4.5" c_fontfamily="" c_text="C13" d="M 4092.57 3350.98 L 4092.36 3350.57 L 4091.95 3350.16 L 4091.55 3349.96 L 4090.73 3349.96 L 4090.32 3350.16 L 4089.91 3350.57 L 4089.7 3350.98 L 4089.5 3351.6 L 4089.5 3352.62 L 4089.7 3353.23 L 4089.91 3353.64 L 4090.32 3354.05 L 4090.73 3354.25 L 4091.55 3354.25 L 4091.95 3354.05 L 4092.36 3353.64 L 4092.57 3353.23 M 4093.92 3350.78 L 4094.33 3350.57 L 4094.94 3349.96 L 4094.94 3354.25 M 4096.7 3349.96 L 4098.95 3349.96 L 4097.72 3351.6 L 4098.34 3351.6 L 4098.75 3351.8 L 4098.95 3352 L 4099.15 3352.62 L 4099.15 3353.03 L 4098.95 3353.64 L 4098.54 3354.05 L 4097.93 3354.25 L 4097.31 3354.25 L 4096.7 3354.05 L 4096.5 3353.85 L 4096.29 3353.44" fill="none"  stroke-width="0.6" c_note="note_pre" /></g><g c_partid="part_pcbtext" c_etype="" c_origin="4152,3370" c_rotation="90" c_mirror="0" id="gge32733" locked="0" layerid="3" c_shapetype="group" display="none"><path c_fontsize="4.5" c_fontfamily="" c_text="SW" d="M 4148.07 3367.14 L 4147.66 3367.55 L 4147.46 3368.16 L 4147.46 3368.98 L 4147.66 3369.59 L 4148.07 3370 L 4148.48 3370 L 4148.89 3369.8 L 4149.1 3369.59 L 4149.3 3369.18 L 4149.71 3367.95 L 4149.91 3367.55 L 4150.12 3367.34 L 4150.53 3367.14 L 4151.14 3367.14 L 4151.55 3367.55 L 4151.75 3368.16 L 4151.75 3368.98 L 4151.55 3369.59 L 4151.14 3370 M 4147.46 3365.79 L 4151.75 3364.76 M 4147.46 3363.74 L 4151.75 3364.76 M 4147.46 3363.74 L 4151.75 3362.72 M 4147.46 3361.7 L 4151.75 3362.72" fill="none"  stroke-width="0.6" c_note="note_name" /></g><g c_partid="part_pcbtext" c_etype="" c_origin="4162,3381" c_rotation="0" c_mirror="0" id="gge32739" locked="0" layerid="3" c_shapetype="group" ><path c_fontsize="4.5" c_fontfamily="" c_text="NEXT" d="M 4162 3376.46 L 4162 3380.75 M 4162 3376.46 L 4164.86 3380.75 M 4164.86 3376.46 L 4164.86 3380.75 M 4166.21 3376.46 L 4166.21 3380.75 M 4166.21 3376.46 L 4168.87 3376.46 M 4166.21 3378.5 L 4167.85 3378.5 M 4166.21 3380.75 L 4168.87 3380.75 M 4170.22 3376.46 L 4173.09 3380.75 M 4173.09 3376.46 L 4170.22 3380.75 M 4175.87 3376.46 L 4175.87 3380.75 M 4174.44 3376.46 L 4177.3 3376.46" fill="none"  stroke-width="0.6" c_note="note_pre" /></g><g c_partid="part_pcbtext" c_etype="" c_origin="4088.79,3379.8" c_rotation="90" c_mirror="0" id="gge32781" locked="0" layerid="3" c_shapetype="group" display="none"><path c_fontsize="4.5" c_fontfamily="" c_text="SW" d="M 4084.86 3376.94 L 4084.45 3377.35 L 4084.25 3377.96 L 4084.25 3378.78 L 4084.45 3379.39 L 4084.86 3379.8 L 4085.27 3379.8 L 4085.68 3379.6 L 4085.89 3379.39 L 4086.09 3378.98 L 4086.5 3377.75 L 4086.7 3377.35 L 4086.91 3377.14 L 4087.32 3376.94 L 4087.93 3376.94 L 4088.34 3377.35 L 4088.54 3377.96 L 4088.54 3378.78 L 4088.34 3379.39 L 4087.93 3379.8 M 4084.25 3375.59 L 4088.54 3374.56 M 4084.25 3373.54 L 4088.54 3374.56 M 4084.25 3373.54 L 4088.54 3372.52 M 4084.25 3371.5 L 4088.54 3372.52" fill="none"  stroke-width="0.6" c_note="note_name" /></g><g c_partid="part_pcbtext" c_etype="" c_origin="4058,3383" c_rotation="0" c_mirror="0" id="gge32787" locked="0" layerid="3" c_shapetype="group" ><path c_fontsize="4.5" c_fontfamily="" c_text="PREV" d="M 4058 3378.46 L 4058 3382.75 M 4058 3378.46 L 4059.84 3378.46 L 4060.45 3378.66 L 4060.66 3378.87 L 4060.86 3379.28 L 4060.86 3379.89 L 4060.66 3380.3 L 4060.45 3380.5 L 4059.84 3380.71 L 4058 3380.71 M 4062.21 3378.46 L 4062.21 3382.75 M 4062.21 3378.46 L 4064.05 3378.46 L 4064.67 3378.66 L 4064.87 3378.87 L 4065.08 3379.28 L 4065.08 3379.69 L 4064.87 3380.1 L 4064.67 3380.3 L 4064.05 3380.5 L 4062.21 3380.5 M 4063.65 3380.5 L 4065.08 3382.75 M 4066.43 3378.46 L 4066.43 3382.75 M 4066.43 3378.46 L 4069.09 3378.46 M 4066.43 3380.5 L 4068.06 3380.5 M 4066.43 3382.75 L 4069.09 3382.75 M 4070.44 3378.46 L 4072.07 3382.75 M 4073.71 3378.46 L 4072.07 3382.75" fill="none"  stroke-width="0.6" c_note="note_pre" /></g><path d="M 4031.5787 3330.6457 A 5.0694 5.0694 0 1 0 4041.5787 3330.6457" locked="0"  fill="none" stroke-width="1" c_helper_type="arc2" net="" layerid="3" id="gge35539" /><path d="M 4028.5787 3232.1457 A 5.0694 5.0694 0 1 0 4038.5787 3232.1457" locked="0"  fill="none" stroke-width="1" c_helper_type="arc2" net="" layerid="3" id="gge35599" /><path d="M 4166.46 3359.13 A 0.5906 0.5906 0 1 0 4166.45 3359.13" locked="0"  fill="none" stroke-width="1.1811" c_helper_type="arc2" net="" layerid="3" id="gge27551" /><path d="M 4154 3358.19 A 2.5 2.5 0 0 0 4149 3358.19" locked="0"  fill="none" stroke-width="1" c_helper_type="arc2" net="" layerid="3" id="gge27554" /><path d="M 4158 3355.43 A 1.1811 1.1811 0 1 0 4157.98 3355.43" locked="0"  fill="none" stroke-width="2.3622" c_helper_type="arc2" net="" layerid="3" id="gge27557" /><path d="M 4083.5472 3333.3701 A 2.9504 2.9504 0 0 1 4089.448 3333.37" locked="0"  fill="none" stroke-width="1" c_helper_type="arc2" net="" layerid="3" id="gge28157" /><path d="M 4193.8266 3219.5941 A 0.7874 0.7874 0 1 0 4193.8266 3219.6041" locked="0"  fill="none" stroke-width="1.5748" c_helper_type="arc2" net="" layerid="3" id="gge28505" /><path d="M 4183.8601 3263.9016 A 9.14 9.14 0 0 1 4202.14 3263.9" locked="0"  fill="none" stroke-width="1.016" c_helper_type="arc2" net="" layerid="3" id="gge28667" /><path d="M 4202.1399 3289.0985 A 9.14 9.14 0 0 1 4183.86 3289.1" locked="0"  fill="none" stroke-width="1.016" c_helper_type="arc2" net="" layerid="3" id="gge28670" /><path d="M 4185.8899 3263.9016 A 7.1101 7.1101 0 0 1 4200.11 3263.9" locked="0"  fill="none" stroke-width="1.016" c_helper_type="arc2" net="" layerid="3" id="gge28673" /><path d="M 4200.1101 3289.0984 A 7.1101 7.1101 0 0 1 4185.89 3289.1" locked="0"  fill="none" stroke-width="1.016" c_helper_type="arc2" net="" layerid="3" id="gge28676" /><circle cx="4182" cy="3214" r="9.8" stroke-width="1" fill="none" layerid="3" id="gge25991" locked="0"  /><circle cx="4182.5" cy="3241.5" r="9.8" stroke-width="1" fill="none" layerid="3" id="gge26045" locked="0"  /><circle cx="4102.878" cy="3334.787" r="0.394" stroke-width="1" fill="none" layerid="3" id="gge28160" locked="0"  /><polyline points="4020 3186.1496 4217 3186 4217 3383 4020.5 3383 4020 3186.1496" stroke-width="1"  stroke-linecap="round" fill="none" layerid="10" net="" id="gge31724" locked="0" /></svg>