M48
METRIC,LZ,000.000
;FILE_FORMAT=3:3
;TYPE=PLATED
;Layer: PTH_Through
;EasyEDA v6.5.3, 2022-04-18 14:54:04
;15adf324dd814951a5dd903392d16c57,9ce652a6aed948bfbe420a612be0e63a,10
;Gerber Generator version 0.2
;Holesize 1 = 0.306 mm
T01C0.306
;Holesize 2 = 0.702 mm
T02C0.702
;Holesize 3 = 0.800 mm
T03C0.800
;Holesize 4 = 0.889 mm
T04C0.889
;Holesize 5 = 0.901 mm
T05C0.901
;Holesize 6 = 0.915 mm
T06C0.915
;Holesize 7 = 1.000 mm
T07C1.000
;Holesize 8 = 1.100 mm
T08C1.100
;Holesize 9 = 1.200 mm
T09C1.200
%
G05
G90
T01
X034586Y009729
X044273Y049059
X027899Y010779
X030301Y003988
T02
X041148Y044196
X041148Y041656
X040005Y035941
X042545Y035941
T03
X043942Y024611
X043942Y029491
T04
X009779Y024511
X007239Y024511
X007493Y047244
X010033Y047244
X031877Y047371
X029337Y047371
X026797Y047371
X024257Y047371
X036703Y047371
X039243Y047371
T05
X002939Y017018G85X002944Y017018
X005438Y017018G85X005443Y017018
X002177Y042037G85X002182Y042037
X004676Y042037G85X004681Y042037
X037401Y007493
X037401Y010033
X037401Y012573
X037401Y015113
X037401Y017653
X037401Y020193
X037401Y022733
X037401Y025273
X037401Y027813
X037401Y030353
X037401Y032893
X037401Y035433
X037401Y037973
X037401Y040513
X029401Y007493
X029401Y010033
X029401Y012573
X029401Y015113
X029401Y017653
X029401Y020193
X029401Y022733
X029401Y025273
X029401Y027813
X029401Y030353
X029401Y032893
X029401Y035433
X029401Y037973
X029401Y040513
T06
X019304Y036322
X016764Y036322
X010541Y040640
X013081Y040640
X015621Y040640
X018161Y040640
X020701Y040640
X023241Y040640
X026924Y027813
X026924Y025273
X029210Y043561
X031750Y043561
X039751Y025527
X039751Y022987
X008763Y019431
X008763Y016891
X048260Y023495
X048260Y020955
X027051Y032893
X027051Y030353
X040640Y010414
X043180Y010414
X023749Y016256
X023749Y013716
X048260Y029210
X048260Y026670
X022987Y023749
X022987Y021209
X023368Y034925
X023368Y032385
X017780Y010287
X020320Y010287
X036576Y003302
X039116Y003302
X013208Y002921
X010668Y002921
T07
X003429Y031750
X003429Y021590
X020791Y013716
X020791Y016256
X020791Y028956
X020791Y031496
X020791Y018796
X020791Y021336
X020791Y026416
X020791Y023876
X012991Y031496
X012991Y028956
X012991Y026416
X012991Y023876
X012991Y021336
X012991Y018796
X012991Y016256
X012991Y013716
T08
X004324Y009906G85X004324Y009906
X013964Y009906G85X013964Y009906
X007493Y039110G85X007493Y039110
X007493Y029470G85X007493Y029470
X046990Y007499G85X046990Y007499
X046990Y017139G85X046990Y017139
T09
X046487Y038735
X046477Y036195
X046487Y041275
M30
