G04 Layer: TopSilkscreenLayer*
G04 EasyEDA v6.5.3, 2022-04-18 14:54:04*
G04 15adf324dd814951a5dd903392d16c57,9ce652a6aed948bfbe420a612be0e63a,10*
G04 Gerber Generator version 0.2*
G04 Scale: 100 percent, Rotated: No, Reflected: No *
G04 Dimensions in millimeters *
G04 leading zeros omitted , absolute positions ,4 integer and 5 decimal *
%FSLAX45Y45*%
%MOMM*%

%ADD10C,0.2540*%
%ADD29C,0.1270*%
%ADD30C,0.2499*%
%ADD31C,0.2007*%
%ADD32C,0.2032*%
%ADD33C,0.2581*%
%ADD34C,0.2030*%
%ADD35C,0.3000*%
%ADD36C,0.6000*%
%ADD37C,0.4000*%
%ADD38C,0.1524*%

%LPD*%
D38*
X1398778Y3683507D02*
G01*
X1393444Y3693921D01*
X1383029Y3704336D01*
X1372870Y3709415D01*
X1352042Y3709415D01*
X1341628Y3704336D01*
X1331213Y3693921D01*
X1325879Y3683507D01*
X1320800Y3667760D01*
X1320800Y3641852D01*
X1325879Y3626357D01*
X1331213Y3615944D01*
X1341628Y3605529D01*
X1352042Y3600450D01*
X1372870Y3600450D01*
X1383029Y3605529D01*
X1393444Y3615944D01*
X1398778Y3626357D01*
X1433068Y3688587D02*
G01*
X1443481Y3693921D01*
X1458976Y3709415D01*
X1458976Y3600450D01*
X1545336Y3709415D02*
G01*
X1493265Y3636771D01*
X1571244Y3636771D01*
X1545336Y3709415D02*
G01*
X1545336Y3600450D01*
X914400Y722884D02*
G01*
X914400Y831850D01*
X914400Y722884D02*
G01*
X867663Y722884D01*
X852170Y727963D01*
X846836Y733297D01*
X841755Y743712D01*
X841755Y754126D01*
X846836Y764539D01*
X852170Y769620D01*
X867663Y774700D01*
X914400Y774700D01*
X878078Y774700D02*
G01*
X841755Y831850D01*
X797052Y722884D02*
G01*
X739902Y722884D01*
X770889Y764539D01*
X755395Y764539D01*
X744981Y769620D01*
X739902Y774700D01*
X734568Y790447D01*
X734568Y800862D01*
X739902Y816355D01*
X750315Y826770D01*
X765810Y831850D01*
X781304Y831850D01*
X797052Y826770D01*
X802131Y821689D01*
X807465Y811276D01*
X1676400Y4331715D02*
G01*
X1676400Y4253737D01*
X1681479Y4238244D01*
X1691894Y4227829D01*
X1707642Y4222750D01*
X1718055Y4222750D01*
X1733550Y4227829D01*
X1743963Y4238244D01*
X1749044Y4253737D01*
X1749044Y4331715D01*
X1835404Y4331715D02*
G01*
X1783334Y4259071D01*
X1861312Y4259071D01*
X1835404Y4331715D02*
G01*
X1835404Y4222750D01*
X762000Y2744215D02*
G01*
X762000Y2635250D01*
X762000Y2744215D02*
G01*
X808736Y2744215D01*
X824229Y2739136D01*
X829563Y2733802D01*
X834644Y2723387D01*
X834644Y2707894D01*
X829563Y2697479D01*
X824229Y2692400D01*
X808736Y2687065D01*
X762000Y2687065D01*
X868934Y2744215D02*
G01*
X868934Y2635250D01*
X868934Y2744215D02*
G01*
X915670Y2744215D01*
X931418Y2739136D01*
X936497Y2733802D01*
X941831Y2723387D01*
X941831Y2712973D01*
X936497Y2702560D01*
X931418Y2697479D01*
X915670Y2692400D01*
X868934Y2692400D01*
X905510Y2692400D02*
G01*
X941831Y2635250D01*
X1007110Y2744215D02*
G01*
X996950Y2739136D01*
X986536Y2728721D01*
X981202Y2718307D01*
X976121Y2702560D01*
X976121Y2676652D01*
X981202Y2661157D01*
X986536Y2650744D01*
X996950Y2640329D01*
X1007110Y2635250D01*
X1027937Y2635250D01*
X1038352Y2640329D01*
X1048765Y2650744D01*
X1054100Y2661157D01*
X1059179Y2676652D01*
X1059179Y2702560D01*
X1054100Y2718307D01*
X1048765Y2728721D01*
X1038352Y2739136D01*
X1027937Y2744215D01*
X1007110Y2744215D01*
X1171447Y2718307D02*
G01*
X1166113Y2728721D01*
X1155700Y2739136D01*
X1145539Y2744215D01*
X1124712Y2744215D01*
X1114297Y2739136D01*
X1103884Y2728721D01*
X1098550Y2718307D01*
X1093470Y2702560D01*
X1093470Y2676652D01*
X1098550Y2661157D01*
X1103884Y2650744D01*
X1114297Y2640329D01*
X1124712Y2635250D01*
X1145539Y2635250D01*
X1155700Y2640329D01*
X1166113Y2650744D01*
X1171447Y2661157D01*
X1171447Y2676652D01*
X1145539Y2676652D02*
G01*
X1171447Y2676652D01*
X951484Y3594100D02*
G01*
X1060450Y3594100D01*
X951484Y3594100D02*
G01*
X951484Y3640836D01*
X956563Y3656329D01*
X961897Y3661663D01*
X972312Y3666744D01*
X982726Y3666744D01*
X993139Y3661663D01*
X998220Y3656329D01*
X1003300Y3640836D01*
X1003300Y3594100D01*
X1003300Y3630421D02*
G01*
X1060450Y3666744D01*
X977392Y3706368D02*
G01*
X972312Y3706368D01*
X961897Y3711447D01*
X956563Y3716781D01*
X951484Y3727195D01*
X951484Y3747770D01*
X956563Y3758184D01*
X961897Y3763518D01*
X972312Y3768597D01*
X982726Y3768597D01*
X993139Y3763518D01*
X1008634Y3753104D01*
X1060450Y3701034D01*
X1060450Y3773931D01*
X38100Y1613915D02*
G01*
X38100Y1504950D01*
X38100Y1613915D02*
G01*
X74421Y1613915D01*
X90170Y1608836D01*
X100329Y1598421D01*
X105663Y1588007D01*
X110744Y1572260D01*
X110744Y1546352D01*
X105663Y1530857D01*
X100329Y1520444D01*
X90170Y1510029D01*
X74421Y1504950D01*
X38100Y1504950D01*
X145034Y1593087D02*
G01*
X155447Y1598421D01*
X171195Y1613915D01*
X171195Y1504950D01*
X63500Y3645915D02*
G01*
X63500Y3536950D01*
X63500Y3645915D02*
G01*
X99821Y3645915D01*
X115570Y3640836D01*
X125729Y3630421D01*
X131063Y3620007D01*
X136144Y3604260D01*
X136144Y3578352D01*
X131063Y3562857D01*
X125729Y3552444D01*
X115570Y3542029D01*
X99821Y3536950D01*
X63500Y3536950D01*
X180847Y3645915D02*
G01*
X237997Y3645915D01*
X207010Y3604260D01*
X222504Y3604260D01*
X232918Y3599179D01*
X237997Y3594100D01*
X243331Y3578352D01*
X243331Y3567937D01*
X237997Y3552444D01*
X227584Y3542029D01*
X212089Y3536950D01*
X196595Y3536950D01*
X180847Y3542029D01*
X175768Y3547110D01*
X170434Y3557523D01*
X3900677Y4013707D02*
G01*
X3895343Y4024121D01*
X3884929Y4034536D01*
X3874770Y4039615D01*
X3853941Y4039615D01*
X3843527Y4034536D01*
X3833113Y4024121D01*
X3827779Y4013707D01*
X3822700Y3997960D01*
X3822700Y3972052D01*
X3827779Y3956557D01*
X3833113Y3946144D01*
X3843527Y3935729D01*
X3853941Y3930650D01*
X3874770Y3930650D01*
X3884929Y3935729D01*
X3895343Y3946144D01*
X3900677Y3956557D01*
X3934968Y4018787D02*
G01*
X3945381Y4024121D01*
X3960875Y4039615D01*
X3960875Y3930650D01*
X4332477Y3315207D02*
G01*
X4327143Y3325621D01*
X4316729Y3336036D01*
X4306570Y3341115D01*
X4285741Y3341115D01*
X4275327Y3336036D01*
X4264913Y3325621D01*
X4259579Y3315207D01*
X4254500Y3299460D01*
X4254500Y3273552D01*
X4259579Y3258057D01*
X4264913Y3247644D01*
X4275327Y3237229D01*
X4285741Y3232150D01*
X4306570Y3232150D01*
X4316729Y3237229D01*
X4327143Y3247644D01*
X4332477Y3258057D01*
X4371847Y3315207D02*
G01*
X4371847Y3320287D01*
X4377181Y3330702D01*
X4382261Y3336036D01*
X4392675Y3341115D01*
X4413504Y3341115D01*
X4423918Y3336036D01*
X4428997Y3330702D01*
X4434331Y3320287D01*
X4434331Y3309873D01*
X4428997Y3299460D01*
X4418584Y3283965D01*
X4366768Y3232150D01*
X4439411Y3232150D01*
X2515108Y2728721D02*
G01*
X2525522Y2734055D01*
X2535936Y2744470D01*
X2541015Y2754629D01*
X2541015Y2775457D01*
X2535936Y2785871D01*
X2525522Y2796286D01*
X2515108Y2801620D01*
X2499359Y2806700D01*
X2473452Y2806700D01*
X2457958Y2801620D01*
X2447543Y2796286D01*
X2437129Y2785871D01*
X2432050Y2775457D01*
X2432050Y2754629D01*
X2437129Y2744470D01*
X2447543Y2734055D01*
X2457958Y2728721D01*
X2541015Y2684018D02*
G01*
X2541015Y2626868D01*
X2499359Y2658110D01*
X2499359Y2642615D01*
X2494279Y2632202D01*
X2489200Y2626868D01*
X2473452Y2621787D01*
X2463038Y2621787D01*
X2447543Y2626868D01*
X2437129Y2637281D01*
X2432050Y2653029D01*
X2432050Y2668523D01*
X2437129Y2684018D01*
X2442209Y2689352D01*
X2452624Y2694431D01*
X3024377Y4204207D02*
G01*
X3019043Y4214621D01*
X3008629Y4225036D01*
X2998470Y4230115D01*
X2977641Y4230115D01*
X2967227Y4225036D01*
X2956813Y4214621D01*
X2951479Y4204207D01*
X2946400Y4188460D01*
X2946400Y4162552D01*
X2951479Y4147057D01*
X2956813Y4136644D01*
X2967227Y4126229D01*
X2977641Y4121150D01*
X2998470Y4121150D01*
X3008629Y4126229D01*
X3019043Y4136644D01*
X3024377Y4147057D01*
X3110484Y4230115D02*
G01*
X3058668Y4157471D01*
X3136645Y4157471D01*
X3110484Y4230115D02*
G01*
X3110484Y4121150D01*
X4165091Y2414778D02*
G01*
X4154677Y2409444D01*
X4144263Y2399029D01*
X4139184Y2388870D01*
X4139184Y2368042D01*
X4144263Y2357628D01*
X4154677Y2347213D01*
X4165091Y2341879D01*
X4180840Y2336800D01*
X4206747Y2336800D01*
X4222241Y2341879D01*
X4232656Y2347213D01*
X4243070Y2357628D01*
X4248150Y2368042D01*
X4248150Y2388870D01*
X4243070Y2399029D01*
X4232656Y2409444D01*
X4222241Y2414778D01*
X4139184Y2511297D02*
G01*
X4139184Y2459481D01*
X4185920Y2454147D01*
X4180840Y2459481D01*
X4175506Y2474976D01*
X4175506Y2490470D01*
X4180840Y2506218D01*
X4191000Y2516631D01*
X4206747Y2521712D01*
X4217161Y2521712D01*
X4232656Y2516631D01*
X4243070Y2506218D01*
X4248150Y2490470D01*
X4248150Y2474976D01*
X4243070Y2459481D01*
X4237990Y2454147D01*
X4227575Y2449068D01*
X839978Y1511807D02*
G01*
X834644Y1522221D01*
X824229Y1532636D01*
X814070Y1537715D01*
X793242Y1537715D01*
X782828Y1532636D01*
X772413Y1522221D01*
X767079Y1511807D01*
X762000Y1496060D01*
X762000Y1470152D01*
X767079Y1454657D01*
X772413Y1444244D01*
X782828Y1433829D01*
X793242Y1428750D01*
X814070Y1428750D01*
X824229Y1433829D01*
X834644Y1444244D01*
X839978Y1454657D01*
X936497Y1522221D02*
G01*
X931418Y1532636D01*
X915670Y1537715D01*
X905510Y1537715D01*
X889762Y1532636D01*
X879347Y1516887D01*
X874268Y1490979D01*
X874268Y1465071D01*
X879347Y1444244D01*
X889762Y1433829D01*
X905510Y1428750D01*
X910589Y1428750D01*
X926084Y1433829D01*
X936497Y1444244D01*
X941831Y1459737D01*
X941831Y1465071D01*
X936497Y1480565D01*
X926084Y1490979D01*
X910589Y1496060D01*
X905510Y1496060D01*
X889762Y1490979D01*
X879347Y1480565D01*
X874268Y1465071D01*
X4864608Y1890521D02*
G01*
X4875022Y1895855D01*
X4885436Y1906270D01*
X4890515Y1916429D01*
X4890515Y1937257D01*
X4885436Y1947671D01*
X4875022Y1958086D01*
X4864608Y1963420D01*
X4848859Y1968500D01*
X4822952Y1968500D01*
X4807458Y1963420D01*
X4797043Y1958086D01*
X4786629Y1947671D01*
X4781550Y1937257D01*
X4781550Y1916429D01*
X4786629Y1906270D01*
X4797043Y1895855D01*
X4807458Y1890521D01*
X4890515Y1783587D02*
G01*
X4781550Y1835404D01*
X4890515Y1856231D02*
G01*
X4890515Y1783587D01*
X2921508Y3109721D02*
G01*
X2931922Y3115055D01*
X2942336Y3125470D01*
X2947415Y3135629D01*
X2947415Y3156457D01*
X2942336Y3166871D01*
X2931922Y3177286D01*
X2921508Y3182620D01*
X2905759Y3187700D01*
X2879852Y3187700D01*
X2864358Y3182620D01*
X2853943Y3177286D01*
X2843529Y3166871D01*
X2838450Y3156457D01*
X2838450Y3135629D01*
X2843529Y3125470D01*
X2853943Y3115055D01*
X2864358Y3109721D01*
X2947415Y3049523D02*
G01*
X2942336Y3065018D01*
X2931922Y3070352D01*
X2921508Y3070352D01*
X2911093Y3065018D01*
X2905759Y3054604D01*
X2900679Y3034029D01*
X2895600Y3018281D01*
X2885186Y3007868D01*
X2874772Y3002787D01*
X2859024Y3002787D01*
X2848609Y3007868D01*
X2843529Y3013202D01*
X2838450Y3028695D01*
X2838450Y3049523D01*
X2843529Y3065018D01*
X2848609Y3070352D01*
X2859024Y3075431D01*
X2874772Y3075431D01*
X2885186Y3070352D01*
X2895600Y3059937D01*
X2900679Y3044189D01*
X2905759Y3023615D01*
X2911093Y3013202D01*
X2921508Y3007868D01*
X2931922Y3007868D01*
X2942336Y3013202D01*
X2947415Y3028695D01*
X2947415Y3049523D01*
X4252722Y1244092D02*
G01*
X4258056Y1233678D01*
X4268470Y1223263D01*
X4278629Y1218184D01*
X4299458Y1218184D01*
X4309872Y1223263D01*
X4320286Y1233678D01*
X4325620Y1244092D01*
X4330700Y1259839D01*
X4330700Y1285747D01*
X4325620Y1301242D01*
X4320286Y1311655D01*
X4309872Y1322070D01*
X4299458Y1327150D01*
X4278629Y1327150D01*
X4268470Y1322070D01*
X4258056Y1311655D01*
X4252722Y1301242D01*
X4150868Y1254505D02*
G01*
X4156202Y1270000D01*
X4166615Y1280413D01*
X4182109Y1285747D01*
X4187190Y1285747D01*
X4202938Y1280413D01*
X4213352Y1270000D01*
X4218431Y1254505D01*
X4218431Y1249426D01*
X4213352Y1233678D01*
X4202938Y1223263D01*
X4187190Y1218184D01*
X4182109Y1218184D01*
X4166615Y1223263D01*
X4156202Y1233678D01*
X4150868Y1254505D01*
X4150868Y1280413D01*
X4156202Y1306576D01*
X4166615Y1322070D01*
X4182109Y1327150D01*
X4192524Y1327150D01*
X4208018Y1322070D01*
X4213352Y1311655D01*
X2591308Y1446021D02*
G01*
X2601722Y1451355D01*
X2612136Y1461770D01*
X2617215Y1471929D01*
X2617215Y1492757D01*
X2612136Y1503171D01*
X2601722Y1513586D01*
X2591308Y1518920D01*
X2575559Y1524000D01*
X2549652Y1524000D01*
X2534158Y1518920D01*
X2523743Y1513586D01*
X2513329Y1503171D01*
X2508250Y1492757D01*
X2508250Y1471929D01*
X2513329Y1461770D01*
X2523743Y1451355D01*
X2534158Y1446021D01*
X2596388Y1411731D02*
G01*
X2601722Y1401318D01*
X2617215Y1385823D01*
X2508250Y1385823D01*
X2591308Y1346200D02*
G01*
X2596388Y1346200D01*
X2606802Y1341120D01*
X2612136Y1336039D01*
X2617215Y1325626D01*
X2617215Y1304797D01*
X2612136Y1294384D01*
X2606802Y1289050D01*
X2596388Y1283970D01*
X2585974Y1283970D01*
X2575559Y1289050D01*
X2560065Y1299463D01*
X2508250Y1351534D01*
X2508250Y1278889D01*
X5042408Y2741421D02*
G01*
X5052822Y2746755D01*
X5063236Y2757170D01*
X5068315Y2767329D01*
X5068315Y2788157D01*
X5063236Y2798571D01*
X5052822Y2808986D01*
X5042408Y2814320D01*
X5026659Y2819400D01*
X5000752Y2819400D01*
X4985258Y2814320D01*
X4974843Y2808986D01*
X4964429Y2798571D01*
X4959350Y2788157D01*
X4959350Y2767329D01*
X4964429Y2757170D01*
X4974843Y2746755D01*
X4985258Y2741421D01*
X5047488Y2707131D02*
G01*
X5052822Y2696718D01*
X5068315Y2681223D01*
X4959350Y2681223D01*
X5068315Y2584450D02*
G01*
X5068315Y2636520D01*
X5021579Y2641600D01*
X5026659Y2636520D01*
X5031993Y2621026D01*
X5031993Y2605278D01*
X5026659Y2589784D01*
X5016500Y2579370D01*
X5000752Y2574289D01*
X4990338Y2574289D01*
X4974843Y2579370D01*
X4964429Y2589784D01*
X4959350Y2605278D01*
X4959350Y2621026D01*
X4964429Y2636520D01*
X4969509Y2641600D01*
X4979924Y2646934D01*
X164084Y2082800D02*
G01*
X273050Y2082800D01*
X164084Y2082800D02*
G01*
X164084Y2119121D01*
X169163Y2134870D01*
X179578Y2145029D01*
X189992Y2150363D01*
X205739Y2155444D01*
X231647Y2155444D01*
X247142Y2150363D01*
X257555Y2145029D01*
X267970Y2134870D01*
X273050Y2119121D01*
X273050Y2082800D01*
X189992Y2195068D02*
G01*
X184912Y2195068D01*
X174497Y2200147D01*
X169163Y2205481D01*
X164084Y2215895D01*
X164084Y2236470D01*
X169163Y2246884D01*
X174497Y2252218D01*
X184912Y2257297D01*
X195326Y2257297D01*
X205739Y2252218D01*
X221234Y2241804D01*
X273050Y2189734D01*
X273050Y2262631D01*
X4966715Y1231900D02*
G01*
X4857750Y1231900D01*
X4966715Y1231900D02*
G01*
X4966715Y1185163D01*
X4961636Y1169670D01*
X4956302Y1164336D01*
X4945888Y1159255D01*
X4935474Y1159255D01*
X4925059Y1164336D01*
X4919979Y1169670D01*
X4914900Y1185163D01*
X4914900Y1231900D01*
X4914900Y1195578D02*
G01*
X4857750Y1159255D01*
X4945888Y1124965D02*
G01*
X4951222Y1114552D01*
X4966715Y1098804D01*
X4857750Y1098804D01*
X3263900Y521715D02*
G01*
X3263900Y443737D01*
X3268979Y428244D01*
X3279393Y417829D01*
X3295141Y412750D01*
X3305556Y412750D01*
X3321050Y417829D01*
X3331463Y428244D01*
X3336543Y443737D01*
X3336543Y521715D01*
X3370834Y500887D02*
G01*
X3381247Y506221D01*
X3396995Y521715D01*
X3396995Y412750D01*
X1587500Y1194815D02*
G01*
X1587500Y1116837D01*
X1592579Y1101344D01*
X1602994Y1090929D01*
X1618742Y1085850D01*
X1629155Y1085850D01*
X1644650Y1090929D01*
X1655063Y1101344D01*
X1660144Y1116837D01*
X1660144Y1194815D01*
X1699768Y1168907D02*
G01*
X1699768Y1173987D01*
X1704847Y1184402D01*
X1710181Y1189736D01*
X1720595Y1194815D01*
X1741170Y1194815D01*
X1751584Y1189736D01*
X1756918Y1184402D01*
X1761997Y1173987D01*
X1761997Y1163573D01*
X1756918Y1153160D01*
X1746504Y1137665D01*
X1694434Y1085850D01*
X1767331Y1085850D01*
X5181587Y3783571D02*
G01*
X5181587Y3861549D01*
X5176507Y3877043D01*
X5166093Y3887457D01*
X5150345Y3892537D01*
X5139931Y3892537D01*
X5124437Y3887457D01*
X5114023Y3877043D01*
X5108943Y3861549D01*
X5108943Y3783571D01*
X5064239Y3783571D02*
G01*
X5007089Y3783571D01*
X5038077Y3825227D01*
X5022583Y3825227D01*
X5012169Y3830307D01*
X5007089Y3835387D01*
X5001755Y3851135D01*
X5001755Y3861549D01*
X5007089Y3877043D01*
X5017503Y3887457D01*
X5032997Y3892537D01*
X5048491Y3892537D01*
X5064239Y3887457D01*
X5069319Y3882377D01*
X5074653Y3871963D01*
X3986784Y2701036D02*
G01*
X4095750Y2773679D01*
X3986784Y2773679D02*
G01*
X4095750Y2701036D01*
X4007611Y2807970D02*
G01*
X4002277Y2818384D01*
X3986784Y2834131D01*
X4095750Y2834131D01*
X1271778Y4775707D02*
G01*
X1266444Y4786121D01*
X1256029Y4796536D01*
X1245870Y4801615D01*
X1225042Y4801615D01*
X1214628Y4796536D01*
X1204213Y4786121D01*
X1198879Y4775707D01*
X1193800Y4759960D01*
X1193800Y4734052D01*
X1198879Y4718557D01*
X1204213Y4708144D01*
X1214628Y4697729D01*
X1225042Y4692650D01*
X1245870Y4692650D01*
X1256029Y4697729D01*
X1266444Y4708144D01*
X1271778Y4718557D01*
X1347470Y4801615D02*
G01*
X1306068Y4692650D01*
X1347470Y4801615D02*
G01*
X1389126Y4692650D01*
X1321562Y4728971D02*
G01*
X1373631Y4728971D01*
X1423415Y4801615D02*
G01*
X1423415Y4692650D01*
X1423415Y4801615D02*
G01*
X1470152Y4801615D01*
X1485900Y4796536D01*
X1490979Y4791202D01*
X1496060Y4780787D01*
X1496060Y4770373D01*
X1490979Y4759960D01*
X1485900Y4754879D01*
X1470152Y4749800D01*
X1423415Y4749800D01*
X1459737Y4749800D02*
G01*
X1496060Y4692650D01*
X2184400Y4547615D02*
G01*
X2184400Y4438650D01*
X2184400Y4438650D02*
G01*
X2246629Y4438650D01*
X2358897Y4521707D02*
G01*
X2353818Y4532121D01*
X2343404Y4542536D01*
X2332990Y4547615D01*
X2312161Y4547615D01*
X2301747Y4542536D01*
X2291334Y4532121D01*
X2286254Y4521707D01*
X2280920Y4505960D01*
X2280920Y4480052D01*
X2286254Y4464557D01*
X2291334Y4454144D01*
X2301747Y4443729D01*
X2312161Y4438650D01*
X2332990Y4438650D01*
X2343404Y4443729D01*
X2353818Y4454144D01*
X2358897Y4464557D01*
X2393188Y4547615D02*
G01*
X2393188Y4438650D01*
X2393188Y4547615D02*
G01*
X2429509Y4547615D01*
X2445258Y4542536D01*
X2455672Y4532121D01*
X2460752Y4521707D01*
X2466086Y4505960D01*
X2466086Y4480052D01*
X2460752Y4464557D01*
X2455672Y4454144D01*
X2445258Y4443729D01*
X2429509Y4438650D01*
X2393188Y4438650D01*
X4152900Y4788915D02*
G01*
X4152900Y4679950D01*
X4152900Y4788915D02*
G01*
X4199636Y4788915D01*
X4215129Y4783836D01*
X4220463Y4778502D01*
X4225543Y4768087D01*
X4225543Y4752594D01*
X4220463Y4742179D01*
X4215129Y4737100D01*
X4199636Y4731765D01*
X4152900Y4731765D01*
X4259834Y4788915D02*
G01*
X4285995Y4679950D01*
X4311904Y4788915D02*
G01*
X4285995Y4679950D01*
X4311904Y4788915D02*
G01*
X4337811Y4679950D01*
X4363720Y4788915D02*
G01*
X4337811Y4679950D01*
X4398009Y4788915D02*
G01*
X4398009Y4679950D01*
X4398009Y4788915D02*
G01*
X4445000Y4788915D01*
X4460493Y4783836D01*
X4465574Y4778502D01*
X4470908Y4768087D01*
X4470908Y4757673D01*
X4465574Y4747260D01*
X4460493Y4742179D01*
X4445000Y4737100D01*
X4398009Y4737100D01*
X4434586Y4737100D02*
G01*
X4470908Y4679950D01*
X2515108Y2195321D02*
G01*
X2525522Y2200655D01*
X2535936Y2211070D01*
X2541015Y2221229D01*
X2541015Y2242057D01*
X2535936Y2252471D01*
X2525522Y2262886D01*
X2515108Y2268220D01*
X2499359Y2273300D01*
X2473452Y2273300D01*
X2457958Y2268220D01*
X2447543Y2262886D01*
X2437129Y2252471D01*
X2432050Y2242057D01*
X2432050Y2221229D01*
X2437129Y2211070D01*
X2447543Y2200655D01*
X2457958Y2195321D01*
X2520188Y2161031D02*
G01*
X2525522Y2150618D01*
X2541015Y2135123D01*
X2432050Y2135123D01*
X2541015Y2069592D02*
G01*
X2535936Y2085339D01*
X2520188Y2095500D01*
X2494279Y2100834D01*
X2478786Y2100834D01*
X2452624Y2095500D01*
X2437129Y2085339D01*
X2432050Y2069592D01*
X2432050Y2059178D01*
X2437129Y2043684D01*
X2452624Y2033270D01*
X2478786Y2028189D01*
X2494279Y2028189D01*
X2520188Y2033270D01*
X2535936Y2043684D01*
X2541015Y2059178D01*
X2541015Y2069592D01*
X2553208Y3312921D02*
G01*
X2563622Y3318255D01*
X2574036Y3328670D01*
X2579115Y3338829D01*
X2579115Y3359657D01*
X2574036Y3370071D01*
X2563622Y3380486D01*
X2553208Y3385820D01*
X2537459Y3390900D01*
X2511552Y3390900D01*
X2496058Y3385820D01*
X2485643Y3380486D01*
X2475229Y3370071D01*
X2470150Y3359657D01*
X2470150Y3338829D01*
X2475229Y3328670D01*
X2485643Y3318255D01*
X2496058Y3312921D01*
X2558288Y3278631D02*
G01*
X2563622Y3268218D01*
X2579115Y3252723D01*
X2470150Y3252723D01*
X2558288Y3218434D02*
G01*
X2563622Y3208020D01*
X2579115Y3192526D01*
X2470150Y3192526D01*
X1843278Y813307D02*
G01*
X1837944Y823721D01*
X1827529Y834136D01*
X1817370Y839215D01*
X1796542Y839215D01*
X1786128Y834136D01*
X1775713Y823721D01*
X1770379Y813307D01*
X1765300Y797560D01*
X1765300Y771652D01*
X1770379Y756157D01*
X1775713Y745744D01*
X1786128Y735329D01*
X1796542Y730250D01*
X1817370Y730250D01*
X1827529Y735329D01*
X1837944Y745744D01*
X1843278Y756157D01*
X1877568Y818387D02*
G01*
X1887981Y823721D01*
X1903476Y839215D01*
X1903476Y730250D01*
X1948179Y839215D02*
G01*
X2005329Y839215D01*
X1974088Y797560D01*
X1989836Y797560D01*
X2000250Y792479D01*
X2005329Y787400D01*
X2010409Y771652D01*
X2010409Y761237D01*
X2005329Y745744D01*
X1994915Y735329D01*
X1979422Y730250D01*
X1963674Y730250D01*
X1948179Y735329D01*
X1943100Y740410D01*
X1937765Y750823D01*
X3606800Y166115D02*
G01*
X3606800Y57150D01*
X3606800Y166115D02*
G01*
X3679443Y57150D01*
X3679443Y166115D02*
G01*
X3679443Y57150D01*
X3713734Y166115D02*
G01*
X3713734Y57150D01*
X3713734Y166115D02*
G01*
X3781297Y166115D01*
X3713734Y114300D02*
G01*
X3755390Y114300D01*
X3713734Y57150D02*
G01*
X3781297Y57150D01*
X3815588Y166115D02*
G01*
X3888486Y57150D01*
X3888486Y166115D02*
G01*
X3815588Y57150D01*
X3959097Y166115D02*
G01*
X3959097Y57150D01*
X3922775Y166115D02*
G01*
X3995420Y166115D01*
X965200Y115315D02*
G01*
X965200Y6350D01*
X965200Y115315D02*
G01*
X1011936Y115315D01*
X1027429Y110236D01*
X1032763Y104902D01*
X1037844Y94487D01*
X1037844Y78994D01*
X1032763Y68579D01*
X1027429Y63500D01*
X1011936Y58165D01*
X965200Y58165D01*
X1072134Y115315D02*
G01*
X1072134Y6350D01*
X1072134Y115315D02*
G01*
X1118870Y115315D01*
X1134618Y110236D01*
X1139697Y104902D01*
X1145031Y94487D01*
X1145031Y84073D01*
X1139697Y73660D01*
X1134618Y68579D01*
X1118870Y63500D01*
X1072134Y63500D01*
X1108710Y63500D02*
G01*
X1145031Y6350D01*
X1179321Y115315D02*
G01*
X1179321Y6350D01*
X1179321Y115315D02*
G01*
X1246886Y115315D01*
X1179321Y63500D02*
G01*
X1220723Y63500D01*
X1179321Y6350D02*
G01*
X1246886Y6350D01*
X1281176Y115315D02*
G01*
X1322578Y6350D01*
X1364234Y115315D02*
G01*
X1322578Y6350D01*
D10*
X1828802Y3548542D02*
G01*
X1828802Y3715852D01*
X1778002Y3715852D02*
G01*
X1778002Y3548542D01*
D29*
X1200150Y990600D02*
G01*
X1136650Y990600D01*
X1073150Y927100D01*
X1009650Y1054100D01*
X946150Y927100D01*
X882650Y1054100D01*
X819150Y927100D01*
X755650Y1054100D01*
X692150Y990600D01*
X628650Y990600D01*
D30*
X1264386Y865606D02*
G01*
X564413Y865606D01*
X564413Y1115593D01*
X1264386Y1115593D01*
X1264386Y865606D01*
D31*
X2451100Y3937000D02*
G01*
X2451100Y4191000D01*
X927100Y3937000D02*
G01*
X927100Y4191000D01*
X927100Y4191000D02*
G01*
X2451100Y4191000D01*
X927100Y3937000D02*
G01*
X2451100Y3937000D01*
D32*
X596900Y2324100D02*
G01*
X596900Y2575560D01*
X1104900Y2575560D01*
X1104900Y2324100D01*
X596900Y2324100D01*
D29*
X749300Y3143250D02*
G01*
X749300Y3206750D01*
X685800Y3270250D01*
X812800Y3333750D01*
X685800Y3397250D01*
X812800Y3460750D01*
X685800Y3524250D01*
X812800Y3587750D01*
X749300Y3651250D01*
X749300Y3714750D01*
D30*
X624306Y3079013D02*
G01*
X624306Y3778986D01*
X874293Y3778986D01*
X874293Y3079013D01*
X624306Y3079013D01*
D10*
X216131Y1329786D02*
G01*
X636130Y1329786D01*
X636130Y1619783D01*
X636130Y1849798D02*
G01*
X206128Y1849798D01*
X211101Y1329799D02*
G01*
X211101Y1619796D01*
X139931Y3831686D02*
G01*
X559930Y3831686D01*
X559930Y4121683D01*
X559930Y4351698D02*
G01*
X129928Y4351698D01*
X134901Y3831699D02*
G01*
X134901Y4121696D01*
X3975100Y4216400D02*
G01*
X3975100Y4114800D01*
X4203700Y3454400D02*
G01*
X4305300Y3454400D01*
X2776057Y2679702D02*
G01*
X2608747Y2679702D01*
X2608747Y2628902D02*
G01*
X2776057Y2628902D01*
X3022597Y4439757D02*
G01*
X3022597Y4272447D01*
X3073397Y4272447D02*
G01*
X3073397Y4439757D01*
X4058757Y2451102D02*
G01*
X3891447Y2451102D01*
X3891447Y2400302D02*
G01*
X4058757Y2400302D01*
X959957Y1841502D02*
G01*
X792647Y1841502D01*
X792647Y1790702D02*
G01*
X959957Y1790702D01*
X4909657Y2247902D02*
G01*
X4742347Y2247902D01*
X4742347Y2197102D02*
G01*
X4909657Y2197102D01*
X2788757Y3187702D02*
G01*
X2621447Y3187702D01*
X2621447Y3136902D02*
G01*
X2788757Y3136902D01*
X4165597Y1125057D02*
G01*
X4165597Y957747D01*
X4216397Y957747D02*
G01*
X4216397Y1125057D01*
X2458557Y1524002D02*
G01*
X2291247Y1524002D01*
X2291247Y1473202D02*
G01*
X2458557Y1473202D01*
X4909657Y2819402D02*
G01*
X4742347Y2819402D01*
X4742347Y2768602D02*
G01*
X4909657Y2768602D01*
X203200Y3022600D02*
G01*
X202900Y2311400D01*
X482600Y3022600D02*
G01*
X482899Y2311400D01*
X482899Y2311400D02*
G01*
X202900Y2311400D01*
X482600Y2920573D02*
G01*
X202600Y2920573D01*
X482600Y3022600D02*
G01*
X202600Y3022600D01*
D29*
X4699000Y1517650D02*
G01*
X4699000Y1454150D01*
X4762500Y1390650D01*
X4635500Y1327150D01*
X4762500Y1263650D01*
X4635500Y1200150D01*
X4762500Y1136650D01*
X4635500Y1073150D01*
X4699000Y1009650D01*
X4699000Y946150D01*
D30*
X4823993Y1581886D02*
G01*
X4823993Y881913D01*
X4574006Y881913D01*
X4574006Y1581886D01*
X4823993Y1581886D01*
D10*
X3276600Y630301D02*
G01*
X3075099Y630301D01*
X3075099Y4170298D01*
X3605100Y4170298D01*
X3605100Y630301D01*
X3403600Y630301D01*
X1369100Y3260600D02*
G01*
X2009099Y3260600D01*
X1369100Y1260599D02*
G01*
X1369100Y1289286D01*
X1369100Y1453913D02*
G01*
X1369100Y1543286D01*
X1369100Y1707913D02*
G01*
X1369100Y1797286D01*
X1369100Y1961913D02*
G01*
X1369100Y2051286D01*
X1369100Y2215913D02*
G01*
X1369100Y2305286D01*
X1369100Y2469913D02*
G01*
X1369100Y2559286D01*
X1369100Y2723913D02*
G01*
X1369100Y2813286D01*
X1369100Y2977913D02*
G01*
X1369100Y3067286D01*
X1369100Y3231913D02*
G01*
X1369100Y3260600D01*
X2009096Y1260599D02*
G01*
X2009096Y1263487D01*
X2009096Y1479715D02*
G01*
X2009096Y1543288D01*
X2009096Y1707911D02*
G01*
X2009096Y1797288D01*
X2009096Y1961911D02*
G01*
X2009096Y2051288D01*
X2009096Y2215911D02*
G01*
X2009096Y2305288D01*
X2009096Y2469911D02*
G01*
X2009096Y2559288D01*
X2009096Y2723911D02*
G01*
X2009096Y2813288D01*
X2009096Y2977911D02*
G01*
X2009096Y3067288D01*
X2009096Y3231911D02*
G01*
X2009096Y3260600D01*
X2009096Y1260599D02*
G01*
X1764101Y1260599D01*
X1369100Y1260599D02*
G01*
X1614098Y1260599D01*
X4957602Y4403613D02*
G01*
X4957602Y3343412D01*
X4477793Y3343412D01*
X4477793Y4403613D01*
X4957094Y4403613D01*
X4957602Y4403613D01*
X4897686Y3343516D02*
G01*
X4897686Y4403509D01*
D33*
X4574796Y2385100D02*
G01*
X4574796Y3025096D01*
X4213603Y3025099D02*
G01*
X4213603Y2385098D01*
X4626353Y3025099D02*
G01*
X4626353Y2385098D01*
X4162046Y2385098D02*
G01*
X4162046Y3025099D01*
D32*
X1130300Y4851400D02*
G01*
X1130300Y4599939D01*
X622300Y4599939D01*
X622300Y4851400D01*
X1130300Y4851400D01*
X2298700Y4610100D02*
G01*
X2298700Y4864100D01*
X3314700Y4864100D01*
X3314700Y4610100D01*
X3124200Y4610100D01*
D34*
X2298700Y4610100D02*
G01*
X3124200Y4610100D01*
D32*
X4051300Y4864100D02*
G01*
X4051300Y4612639D01*
X3543300Y4612639D01*
X3543300Y4864100D01*
X4051300Y4864100D01*
D10*
X2382357Y2273302D02*
G01*
X2215047Y2273302D01*
X2215047Y2222502D02*
G01*
X2382357Y2222502D01*
X2420457Y3390902D02*
G01*
X2253147Y3390902D01*
X2253147Y3340102D02*
G01*
X2420457Y3340102D01*
X1879597Y1112357D02*
G01*
X1879597Y945047D01*
X1930397Y945047D02*
G01*
X1930397Y1112357D01*
G75*
G01*
X294099Y1329799D02*
G03*
X548099Y1329799I127000J-21233D01*
G75*
G01*
X217899Y3831699D02*
G03*
X471899Y3831699I127000J-21233D01*
D35*
G75*
G01*
X3720084Y606298D02*
G03*
X3719830Y606298I-127J15001D01*
D10*
G75*
G01*
X3403600Y630174D02*
G03*
X3276600Y630174I-63500J0D01*
D36*
G75*
G01*
X3505200Y700278D02*
G03*
X3504692Y700278I-254J29999D01*
D10*
G75*
G01*
X1614099Y1260599D02*
G02*
X1763979Y1260602I74940J2D01*
D37*
G75*
G01*
X4415196Y4150510D02*
G03*
X4415196Y4150256I-20000J-127D01*
D33*
G75*
G01*
X4162047Y3025099D02*
G02*
X4626356Y3025140I232154J-747D01*
G75*
G01*
X4626353Y2385098D02*
G02*
X4162044Y2385060I-232154J749D01*
G75*
G01*
X4213603Y3025099D02*
G02*
X4574794Y3025140I180596J-656D01*
G75*
G01*
X4574797Y2385101D02*
G02*
X4213606Y2385060I-180596J656D01*
D10*
G75*
G01
X4363720Y4292600D02*
G03X4363720Y4292600I-248920J0D01*
G75*
G01
X4376420Y3594100D02*
G03X4376420Y3594100I-248920J0D01*
G75*
G01
X2115109Y1224610D02*
G03X2115109Y1224610I-10008J0D01*
M02*
