G04 Layer: TopLayer*
G04 EasyEDA v6.5.3, 2022-04-18 14:54:04*
G04 15adf324dd814951a5dd903392d16c57,9ce652a6aed948bfbe420a612be0e63a,10*
G04 Gerber Generator version 0.2*
G04 Scale: 100 percent, Rotated: No, Reflected: No *
G04 Dimensions in millimeters *
G04 leading zeros omitted , absolute positions ,4 integer and 5 decimal *
%FSLAX45Y45*%
%MOMM*%

%ADD11C,0.8000*%
%ADD12C,0.6100*%
%ADD13C,1.7500*%
%ADD14C,2.0000*%
%ADD16C,1.4986*%
%ADD17R,1.5748X1.5748*%
%ADD18C,1.5748*%
%ADD19C,1.3800*%
%ADD20R,1.6510X1.6510*%
%ADD21C,1.6510*%
%ADD22C,1.8000*%
%ADD23R,1.5000X1.5000*%
%ADD24C,1.5000*%
%ADD25R,1.7000X1.7000*%
%ADD26C,1.7000*%
%ADD27R,2.6000X1.8000*%
%ADD28C,1.5240*%

%LPD*%
D11*
X749300Y4724400D02*
G01*
X749300Y4485106D01*
X467893Y4203700D01*
X4277410Y4419600D02*
G01*
X4399432Y4297578D01*
X4648708Y4297578D01*
X3740099Y2527300D02*
G01*
X3194100Y2527300D01*
X2940100Y2273300D01*
X2789885Y1077925D02*
G01*
X2565679Y853719D01*
X1533270Y853719D01*
X1396390Y990600D01*
X4114800Y4419600D02*
G01*
X4114800Y4546600D01*
X3924300Y4737100D01*
X1299108Y1371600D02*
G01*
X1396390Y1274318D01*
X1396390Y990600D01*
X2070100Y4064000D02*
G01*
X1676400Y3670300D01*
X1676400Y3632200D01*
X1003300Y4724400D02*
G01*
X1054100Y4673600D01*
X1054100Y4064000D01*
X3895166Y749300D02*
G01*
X3895166Y872566D01*
X4064000Y1041400D01*
X2940100Y2811170D02*
G01*
X3100044Y2971114D01*
X3100044Y4177055D01*
X2921000Y4356100D01*
X2336800Y3238500D02*
G01*
X2336800Y2899308D01*
X2079091Y2641600D01*
X342900Y3175000D02*
G01*
X342900Y2832100D01*
X723900Y2451100D01*
X217906Y4203700D02*
G01*
X217906Y3815714D01*
X749300Y3284321D01*
X749300Y2947009D01*
X467893Y4203700D02*
G01*
X467893Y3890594D01*
X977900Y3380587D01*
X977900Y2451100D01*
X4394200Y2461107D02*
G01*
X4714392Y2461107D01*
X4826000Y2349500D01*
X3740099Y2781300D02*
G01*
X4074007Y2781300D01*
X4394200Y2461107D01*
X2298700Y2374900D02*
G01*
X2091791Y2374900D01*
X2079091Y2387600D01*
X4394200Y2949092D02*
G01*
X4797907Y2949092D01*
X4826000Y2921000D01*
X3740099Y3035300D02*
G01*
X4307992Y3035300D01*
X4394200Y2949092D01*
X2079091Y1879600D02*
G01*
X2333091Y1625600D01*
X2374900Y1625600D01*
X2298700Y2120900D02*
G01*
X2091791Y2120900D01*
X2079091Y2133600D01*
X2079091Y1371600D02*
G01*
X2374900Y1371600D01*
X342900Y2159000D02*
G01*
X1019708Y2159000D01*
X1299108Y1879600D01*
X3670300Y4737100D02*
G01*
X3187700Y4737100D01*
X3740099Y2527300D02*
G01*
X3949700Y2527300D01*
X3975100Y2552700D01*
X2705100Y3289300D02*
G01*
X2535986Y3120186D01*
X2535986Y2937713D01*
X2692400Y2781300D01*
X4826000Y2095500D02*
G01*
X4432300Y2095500D01*
X3975100Y2552700D01*
X1299108Y1625600D02*
G01*
X1193800Y1625600D01*
X876300Y1943100D01*
X876300Y1943100D02*
G01*
X535406Y1943100D01*
X294106Y1701800D01*
X3187700Y4368800D02*
G01*
X3658412Y4368800D01*
X4069892Y3957320D01*
X4564888Y3957320D01*
X4648682Y3873525D01*
X3187700Y4737100D02*
G01*
X3187700Y4368800D01*
X3187700Y4368800D02*
G01*
X3175000Y4356100D01*
X2705100Y3289300D02*
G01*
X2501900Y3492500D01*
X2336800Y3492500D01*
X2336800Y3492500D02*
G01*
X2308809Y3464509D01*
X1195781Y3464509D01*
X749300Y3910990D01*
X2940100Y2273300D02*
G01*
X2697784Y2273300D01*
X2697784Y2273300D02*
G01*
X2514066Y2457018D01*
X2514066Y2602966D01*
X2692400Y2781300D01*
X2032000Y1037158D02*
G01*
X2032000Y1028700D01*
X1299108Y1625600D02*
G01*
X1443558Y1625600D01*
X2032000Y1037158D01*
X2032000Y1037158D02*
G01*
X2292984Y1037158D01*
X2697784Y1441957D01*
X2697784Y2273300D01*
X749300Y3910990D02*
G01*
X899109Y4060799D01*
X899109Y4064000D01*
X1054100Y4064000D02*
G01*
X899109Y4064000D01*
X1299108Y2133600D02*
G01*
X1295400Y2133600D01*
X977900Y2451100D01*
X544093Y1701800D02*
G01*
X544093Y1102283D01*
X432409Y990600D01*
X4648708Y4127525D02*
G01*
X4648708Y4297578D01*
X4114800Y4419600D02*
G01*
X4277410Y4419600D01*
X4699000Y749909D02*
G01*
X3895775Y749909D01*
X3895166Y749300D01*
X3740099Y749300D02*
G01*
X3817645Y749300D01*
X3817645Y749300D02*
G01*
X3895166Y749300D01*
X3817645Y749300D02*
G01*
X3467125Y398779D01*
X3030067Y398779D01*
X4647691Y3619500D02*
G01*
X4592853Y3619500D01*
X4454804Y3757548D01*
X4163949Y3757548D01*
X4000500Y3594100D01*
X2940100Y2527300D02*
G01*
X2692400Y2527300D01*
X3740099Y2273300D02*
G01*
X3949700Y2273300D01*
X3975100Y2298700D01*
X4699000Y1713890D02*
G01*
X4559909Y1713890D01*
X3975100Y2298700D01*
X876300Y1689100D02*
G01*
X1193800Y1371600D01*
X1299108Y1371600D01*
X2933700Y4737100D02*
G01*
X2933700Y4368800D01*
X2921000Y4356100D01*
X2921000Y4356100D02*
G01*
X2616200Y4356100D01*
X2324100Y4064000D01*
X3740099Y1511300D02*
G01*
X3338423Y1109624D01*
X3338423Y924001D01*
X2706522Y292100D01*
X1320800Y292100D01*
X1308100Y4064000D02*
G01*
X2149957Y4905857D01*
X4427347Y4905857D01*
X3458590Y972896D02*
G01*
X3709695Y972896D01*
X3740099Y1003300D01*
D13*
G01*
X1930400Y3632200D03*
G01*
X1676400Y3632200D03*
D14*
G01*
X432409Y990600D03*
G01*
X1396390Y990600D03*
G36*
X979170Y4138929D02*
G01*
X1129029Y4138929D01*
X1129029Y3989070D01*
X979170Y3989070D01*
G37*
D16*
G01*
X1308100Y4064000D03*
G01*
X1562100Y4064000D03*
G01*
X1816100Y4064000D03*
G01*
X2070100Y4064000D03*
G01*
X2324100Y4064000D03*
D17*
G01*
X977900Y2451100D03*
D18*
G01*
X723900Y2451100D03*
D14*
G01*
X749300Y3910990D03*
G01*
X749300Y2947009D03*
D19*
G01*
X294106Y1701800D03*
G01*
X544093Y1701800D03*
G01*
X217906Y4203700D03*
G01*
X467893Y4203700D03*
D20*
G01*
X4114800Y4419600D03*
D21*
G01*
X4114800Y4165600D03*
D20*
G01*
X4000500Y3594100D03*
D21*
G01*
X4254500Y3594100D03*
D13*
G01*
X2692400Y2781300D03*
G01*
X2692400Y2527300D03*
G01*
X2921000Y4356100D03*
G01*
X3175000Y4356100D03*
G01*
X3975100Y2552700D03*
G01*
X3975100Y2298700D03*
G01*
X876300Y1943100D03*
G01*
X876300Y1689100D03*
G01*
X4826000Y2349500D03*
G01*
X4826000Y2095500D03*
G01*
X2705100Y3289300D03*
G01*
X2705100Y3035300D03*
G01*
X4064000Y1041400D03*
G01*
X4318000Y1041400D03*
G01*
X2374900Y1625600D03*
G01*
X2374900Y1371600D03*
G01*
X4826000Y2921000D03*
G01*
X4826000Y2667000D03*
D22*
G01*
X342900Y3175000D03*
G01*
X342900Y2159000D03*
D14*
G01*
X4699000Y749909D03*
G01*
X4699000Y1713890D03*
D23*
G01*
X3740099Y749300D03*
D24*
G01*
X3740099Y1003300D03*
G01*
X3740099Y1257300D03*
G01*
X3740099Y1511300D03*
G01*
X3740099Y1765300D03*
G01*
X3740099Y2019300D03*
G01*
X3740099Y2273300D03*
G01*
X3740099Y2527300D03*
G01*
X3740099Y2781300D03*
G01*
X3740099Y3035300D03*
G01*
X3740099Y3289300D03*
G01*
X3740099Y3543300D03*
G01*
X3740099Y3797300D03*
G01*
X3740099Y4051300D03*
G01*
X2940100Y749300D03*
G01*
X2940100Y1003300D03*
G01*
X2940100Y1257300D03*
G01*
X2940100Y1511300D03*
G01*
X2940100Y1765300D03*
G01*
X2940100Y2019300D03*
G01*
X2940100Y2273300D03*
G01*
X2940100Y2527300D03*
G01*
X2940100Y2781300D03*
G01*
X2940100Y3035300D03*
G01*
X2940100Y3289300D03*
G01*
X2940100Y3543300D03*
G01*
X2940100Y3797300D03*
G01*
X2940100Y4051300D03*
D25*
G01*
X2079091Y1371600D03*
D26*
G01*
X2079091Y1625600D03*
G01*
X2079091Y2895600D03*
G01*
X2079091Y3149600D03*
G01*
X2079091Y1879600D03*
G01*
X2079091Y2133600D03*
G01*
X2079091Y2641600D03*
G01*
X2079091Y2387600D03*
G01*
X1299108Y3149600D03*
G01*
X1299108Y2895600D03*
G01*
X1299108Y2641600D03*
G01*
X1299108Y2387600D03*
G01*
X1299108Y2133600D03*
G01*
X1299108Y1879600D03*
G01*
X1299108Y1625600D03*
G01*
X1299108Y1371600D03*
D27*
G01*
X4648708Y4127500D03*
D22*
G01*
X4394200Y2461107D03*
G01*
X4394200Y2949092D03*
D17*
G01*
X749300Y4724400D03*
D18*
G01*
X1003300Y4724400D03*
D17*
G01*
X3187700Y4737100D03*
D18*
G01*
X2933700Y4737100D03*
G01*
X2679700Y4737100D03*
G01*
X2425700Y4737100D03*
D17*
G01*
X3670300Y4737100D03*
D18*
G01*
X3924300Y4737100D03*
D13*
G01*
X2298700Y2374900D03*
G01*
X2298700Y2120900D03*
G01*
X2336800Y3492500D03*
G01*
X2336800Y3238500D03*
G01*
X1778000Y1028700D03*
G01*
X2032000Y1028700D03*
D28*
G01*
X3657600Y330200D03*
G01*
X3911600Y330200D03*
G01*
X1320800Y292100D03*
G01*
X1066800Y292100D03*
D12*
G01*
X3458590Y972896D03*
G01*
X4427347Y4905857D03*
G01*
X2789885Y1077925D03*
G01*
X3030067Y398779D03*
D22*
X4688682Y3873525D02*
G01*
X4608682Y3873525D01*
X4687691Y3619500D02*
G01*
X4607692Y3619500D01*
M02*
