G04 Layer: BottomSolderMaskLayer*
G04 EasyEDA v6.5.3, 2022-04-18 14:54:04*
G04 15adf324dd814951a5dd903392d16c57,9ce652a6aed948bfbe420a612be0e63a,10*
G04 Gerber Generator version 0.2*
G04 Scale: 100 percent, Rotated: No, Reflected: No *
G04 Dimensions in millimeters *
G04 leading zeros omitted , absolute positions ,4 integer and 5 decimal *
%FSLAX45Y45*%
%MOMM*%

%ADD39C,1.9016*%
%ADD40C,1.9532*%
%ADD41C,2.2032*%
%ADD43C,1.7018*%
%ADD44R,1.6764X1.6764*%
%ADD45C,1.6764*%
%ADD46C,1.5832*%
%ADD47R,1.8542X1.8542*%
%ADD48C,1.8542*%
%ADD49C,2.0032*%
%ADD51C,1.6016*%
%ADD53C,1.8016*%
%ADD55C,1.7272*%

%LPD*%
D39*
X4688682Y3873525D02*
G01*
X4608682Y3873525D01*
X4687691Y3619500D02*
G01*
X4607692Y3619500D01*
D40*
G01*
X1930400Y3632200D03*
G01*
X1676400Y3632200D03*
D41*
G01*
X432409Y990600D03*
G01*
X1396390Y990600D03*
G36*
X969010Y3978910D02*
G01*
X969010Y4149089D01*
X1139189Y4149089D01*
X1139189Y3978910D01*
G37*
D43*
G01*
X1308100Y4064000D03*
G01*
X1562100Y4064000D03*
G01*
X1816100Y4064000D03*
G01*
X2070100Y4064000D03*
G01*
X2324100Y4064000D03*
D44*
G01*
X977900Y2451100D03*
D45*
G01*
X723900Y2451100D03*
D41*
G01*
X749300Y3910990D03*
G01*
X749300Y2947009D03*
D46*
G01*
X294106Y1701800D03*
G01*
X544093Y1701800D03*
G01*
X217906Y4203700D03*
G01*
X467893Y4203700D03*
D47*
G01*
X4114800Y4419600D03*
D48*
G01*
X4114800Y4165600D03*
G36*
X3907790Y3501389D02*
G01*
X3907790Y3686810D01*
X4093209Y3686810D01*
X4093209Y3501389D01*
G37*
G01*
X4254500Y3594100D03*
D40*
G01*
X2692400Y2781300D03*
G01*
X2692400Y2527300D03*
G01*
X2921000Y4356100D03*
G01*
X3175000Y4356100D03*
G01*
X3975100Y2552700D03*
G01*
X3975100Y2298700D03*
G01*
X876300Y1943100D03*
G01*
X876300Y1689100D03*
G01*
X4826000Y2349500D03*
G01*
X4826000Y2095500D03*
G01*
X2705100Y3289300D03*
G01*
X2705100Y3035300D03*
G01*
X4064000Y1041400D03*
G01*
X4318000Y1041400D03*
G01*
X2374900Y1625600D03*
G01*
X2374900Y1371600D03*
G01*
X4826000Y2921000D03*
G01*
X4826000Y2667000D03*
D49*
G01*
X342900Y3175000D03*
G01*
X342900Y2159000D03*
D41*
G01*
X4699000Y749909D03*
G01*
X4699000Y1713890D03*
G36*
X3660140Y669289D02*
G01*
X3660140Y829310D01*
X3820159Y829310D01*
X3820159Y669289D01*
G37*
D51*
G01*
X3740099Y1003300D03*
G01*
X3740099Y1257300D03*
G01*
X3740099Y1511300D03*
G01*
X3740099Y1765300D03*
G01*
X3740099Y2019300D03*
G01*
X3740099Y2273300D03*
G01*
X3740099Y2527300D03*
G01*
X3740099Y2781300D03*
G01*
X3740099Y3035300D03*
G01*
X3740099Y3289300D03*
G01*
X3740099Y3543300D03*
G01*
X3740099Y3797300D03*
G01*
X3740099Y4051300D03*
G01*
X2940100Y749300D03*
G01*
X2940100Y1003300D03*
G01*
X2940100Y1257300D03*
G01*
X2940100Y1511300D03*
G01*
X2940100Y1765300D03*
G01*
X2940100Y2019300D03*
G01*
X2940100Y2273300D03*
G01*
X2940100Y2527300D03*
G01*
X2940100Y2781300D03*
G01*
X2940100Y3035300D03*
G01*
X2940100Y3289300D03*
G01*
X2940100Y3543300D03*
G01*
X2940100Y3797300D03*
G01*
X2940100Y4051300D03*
G36*
X1989074Y1281429D02*
G01*
X1989074Y1461770D01*
X2169159Y1461770D01*
X2169159Y1281429D01*
G37*
D53*
G01*
X2079091Y1625600D03*
G01*
X2079091Y2895600D03*
G01*
X2079091Y3149600D03*
G01*
X2079091Y1879600D03*
G01*
X2079091Y2133600D03*
G01*
X2079091Y2641600D03*
G01*
X2079091Y2387600D03*
G01*
X1299108Y3149600D03*
G01*
X1299108Y2895600D03*
G01*
X1299108Y2641600D03*
G01*
X1299108Y2387600D03*
G01*
X1299108Y2133600D03*
G01*
X1299108Y1879600D03*
G01*
X1299108Y1625600D03*
G01*
X1299108Y1371600D03*
G36*
X4513579Y4032504D02*
G01*
X4513579Y4222495D01*
X4783836Y4222495D01*
X4783836Y4032504D01*
G37*
D39*
G01*
X4394200Y2461107D03*
G01*
X4394200Y2949092D03*
G36*
X665479Y4640579D02*
G01*
X665479Y4808220D01*
X833120Y4808220D01*
X833120Y4640579D01*
G37*
D45*
G01*
X1003300Y4724400D03*
G36*
X3103879Y4653279D02*
G01*
X3103879Y4820920D01*
X3271520Y4820920D01*
X3271520Y4653279D01*
G37*
G01*
X2933700Y4737100D03*
G01*
X2679700Y4737100D03*
G01*
X2425700Y4737100D03*
G36*
X3586479Y4653279D02*
G01*
X3586479Y4820920D01*
X3754120Y4820920D01*
X3754120Y4653279D01*
G37*
G01*
X3924300Y4737100D03*
D40*
G01*
X2298700Y2374900D03*
G01*
X2298700Y2120900D03*
G01*
X2336800Y3492500D03*
G01*
X2336800Y3238500D03*
G01*
X1778000Y1028700D03*
G01*
X2032000Y1028700D03*
D55*
G01*
X3657600Y330200D03*
G01*
X3911600Y330200D03*
G01*
X1320800Y292100D03*
G01*
X1066800Y292100D03*
M02*
